<?xml version="1.0" encoding="UTF-8"?>
<svg width="16px" height="16px" viewBox="0 0 16 16" version="1.1" xmlns="http://www.w3.org/2000/svg" xmlns:xlink="http://www.w3.org/1999/xlink">
    <title>基础信息</title>
    <defs>
        <linearGradient x1="50%" y1="-2.41187448e-13%" x2="50%" y2="100%" id="linearGradient-1">
            <stop stop-color="#76A8F4" offset="0%"></stop>
            <stop stop-color="#2F68BD" offset="100%"></stop>
        </linearGradient>
    </defs>
    <g id="表单管理" stroke="none" stroke-width="1" fill="none" fill-rule="evenodd">
        <g id="任务概览" transform="translate(-40.000000, -127.000000)" fill="url(#linearGradient-1)">
            <g id="基础信息" transform="translate(40.000000, 127.000000)">
                <path d="M3.18455657,1.71448572 L3.18455657,6.85634282 L13.0154434,6.85634282 L13.0154434,1.71448572 C13.0154434,1.3990049 12.7710142,1.14325716 12.4694954,1.14325716 L3.73050455,1.14325716 C3.4289858,1.14325716 3.18455657,1.3990049 3.18455657,1.71448572 Z M14.108104,1.71448572 L14.108104,6.85634282 C14.7091056,6.85634282 15.2,7.37076854 15.2,7.99959998 L15.2,14.8567428 C15.2,15.4855743 14.7091056,16 14.108104,16 L2.0926606,16 C1.49019545,15.9982443 1.00209978,15.4879043 1,14.8575429 L1,8.00040002 C1,7.37156858 1.49165904,6.85714286 2.0926606,6.85714286 L2.0926606,1.71448572 C2.0926606,0.768038402 2.82747294,0 3.72973992,0 L12.4694954,0 C13.3725271,0 14.108104,0.768838442 14.108104,1.71448572 Z M4.82316515,2.28571429 L11.3768349,2.28571429 C11.6773356,2.28571429 11.9235475,2.54332717 11.9235475,2.85694285 C11.9231263,3.17268281 11.6786013,3.42853078 11.3768349,3.42897145 L4.82316515,3.42897145 C4.52169739,3.42809067 4.27763704,3.17237125 4.27721717,2.85694285 C4.27721717,2.54332717 4.52266437,2.28571429 4.82316515,2.28571429 Z M11.3768349,4.57142857 C11.6773356,4.57142857 11.9235475,4.82904145 11.9235475,5.14345717 C11.9227057,5.45888465 11.6783035,5.71424642 11.3768349,5.71468573 L4.82316515,5.71468573 C4.52199507,5.71380674 4.27805726,5.45857319 4.27721717,5.14345717 C4.27721717,4.82904145 4.52266437,4.57142857 4.82316515,4.57142857 L11.3768349,4.57142857 L11.3768349,4.57142857 Z" id="形状"></path>
            </g>
        </g>
    </g>
</svg>