<?xml version="1.0" encoding="UTF-8"?>
<svg width="14px" height="14px" viewBox="0 0 14 14" version="1.1" xmlns="http://www.w3.org/2000/svg" xmlns:xlink="http://www.w3.org/1999/xlink">
    <title>部门备份 3</title>
    <defs>
        <linearGradient x1="50%" y1="-2.41187448e-13%" x2="50%" y2="99.057583%" id="linearGradient-1">
            <stop stop-color="#F9C47E" offset="0%"></stop>
            <stop stop-color="#F2951B" offset="100%"></stop>
        </linearGradient>
    </defs>
    <g id="表单管理" stroke="none" stroke-width="1" fill="none" fill-rule="evenodd">
        <g id="协作进度" transform="translate(-464.000000, -254.000000)" fill="url(#linearGradient-1)">
            <g id="房子备份-10" transform="translate(464.000000, 254.000000)">
                <path d="M13.4618918,12.92375 L12.9062842,12.92375 L12.9062842,6.22475 C12.9062842,5.929 12.7050405,5.80475 12.368176,5.686625 L9.15440142,4.844875 C8.85692902,4.84535675 8.61590001,5.0863933 8.61541827,5.383875 L8.61541827,12.922 L7.5392019,12.922 L7.5392019,0.623 C7.53832693,0.242375 7.29508453,0 7.00021874,0 L1.59901253,1.850625 C1.27964751,2.036125 1.06090435,2.093 1.06090435,2.473625 L1.06090435,12.922875 L0.53854567,12.922875 C0.24111511,12.922875 0,13.1639976 0,13.4614375 C0,13.7588774 0.24111511,14 0.53854567,14 L13.4618918,14 C13.7590808,14 14,13.7590732 14,13.461875 C14,13.1646768 13.7590808,12.92375 13.4618918,12.92375 Z M1.08196851,13.0149863 C1.08196851,12.8429671 1.08196851,12.9267713 1.13316851,13.0149863 L1.08196851,13.0149863 Z M2.33333333,5.112625 L2.33333333,4.025 L6.33333333,4.025 L6.33333333,5.1135 L2.33333333,5.1135 L2.33333333,5.112625 Z M6.33333333,6.51214583 L6.33333333,7.60064583 L2.33333333,7.60064583 L2.33333333,6.51127083 L6.33333333,6.51127083 L6.33333333,6.51214583 Z M2.33333333,8.99841667 L6.33333333,8.99841667 L6.33333333,10.0869167 L2.33333333,10.0869167 L2.33333333,8.99841667 Z M7.61335361,13.0149863 L7.55575361,13.0149863 C7.61335361,12.9267713 7.61335361,12.8429671 7.61335361,13.0149863 Z M11.8125684,10.248 L9.69250961,10.248 L9.69250961,9.15425 L11.8125684,9.15425 L11.8125684,10.248 Z M11.8300678,8.09375 L9.70913409,8.09375 L9.70913409,7 L11.8291928,7 L11.8291928,8.09375 L11.8300678,8.09375 Z" id="形状"></path>
            </g>
        </g>
    </g>
</svg>