<?xml version="1.0" encoding="UTF-8"?>
<svg width="118px" height="118px" viewBox="0 0 118 118" version="1.1" xmlns="http://www.w3.org/2000/svg" xmlns:xlink="http://www.w3.org/1999/xlink">
    <title>完成</title>
    <g id="表单管理" stroke="none" stroke-width="1" fill="none" fill-rule="evenodd">
        <g id="添加任务-step4-任务配置完成" transform="translate(-661.000000, -280.000000)">
            <g id="Group-6备份-3" transform="translate(661.000000, 280.000000)">
                <g id="Group-6备份" transform="translate(15.000000, 15.000000)">
                    <circle id="Oval-1-Copy-10" stroke-opacity="0.25" stroke="#00A471" stroke-width="15" fill="#00A174" cx="44" cy="44" r="51.5"></circle>
                    <path d="M62.7671933,29.1003384 C64.1677336,27.671808 66.4368732,27.6287695 67.8893354,29.0031874 C69.1783038,30.2216219 69.3696521,32.220301 68.3357827,33.6664342 L67.9901461,34.0793258 L41.9953949,60.8978523 C40.6992832,62.221642 38.6352943,62.3711181 37.1660838,61.2475958 L36.7532401,60.8784221 L21.9916778,45.4508474 C21.3330895,44.7653491 20.9759523,43.8398016 21.0012589,42.8841032 C21.0265654,41.9284047 21.4321712,41.0235372 22.126092,40.374709 C23.4366538,39.14415 25.4319968,39.0457596 26.8545925,40.1415466 L27.2530346,40.5010052 L39.4079211,53.1937801 L62.7623928,29.1003384 L62.7671933,29.1003384 Z" id="路径" stroke="#FFFFFF" stroke-width="0.6" fill="#FFFFFF"></path>
                </g>
            </g>
        </g>
    </g>
</svg>