<?xml version="1.0" encoding="UTF-8"?>
<svg width="14px" height="14px" viewBox="0 0 14 14" version="1.1" xmlns="http://www.w3.org/2000/svg" xmlns:xlink="http://www.w3.org/1999/xlink">
    <title>催办</title>
    <g id="表单管理" stroke="none" stroke-width="1" fill="none" fill-rule="evenodd">
        <g id="任务详情" transform="translate(-1313.000000, -224.000000)" fill="#FFFFFF" fill-rule="nonzero">
            <g id="编组-10备份-2" transform="translate(1304.000000, 215.000000)">
                <g id="催办" transform="translate(9.000000, 9.000000)">
                    <path d="M6.98513542,2.4297474 C10.1801797,2.4297474 12.7702708,5.01982031 12.7702708,8.21486458 C12.7702708,11.4099089 10.1801797,14 6.98513542,14 C3.79009115,14 1.2,11.4099271 1.2,8.21488281 C1.2,5.01983854 3.79009115,2.4297474 6.98513542,2.4297474 Z M6.98498958,3.8505625 C6.62177291,3.8505625 6.3271875,4.14514791 6.3271875,4.50836458 L6.3271875,8.2149375 C6.3271875,8.57815417 6.62177291,8.87273958 6.98498958,8.87273958 L9.18907812,8.87273958 C9.55229355,8.87273958 9.84689844,8.57815543 9.84689844,8.2149375 L9.83976443,8.11774977 C9.79277025,7.80059443 9.51929333,7.55713542 9.18909635,7.55713542 L7.642,7.557 L7.64279167,4.50836458 C7.64279167,4.14514791 7.34820626,3.8505625 6.98498958,3.8505625 Z M9.0134401,0 C9.27714323,0 9.4904974,0.213372396 9.4904974,0.477057292 L9.4904974,0.477057292 L9.4904974,1.13768229 C9.4904974,1.40136719 9.277125,1.61473958 9.0134401,1.61473958 L9.0134401,1.61473958 L4.95652083,1.61473958 C4.69283594,1.61473958 4.47946354,1.40136719 4.47946354,1.13768229 L4.47946354,1.13768229 L4.47946354,0.477057292 C4.47946354,0.213372396 4.69283594,0 4.95652083,0 L4.95652083,0 Z" id="形状结合"></path>
                </g>
            </g>
        </g>
    </g>
</svg>