<?xml version="1.0" encoding="UTF-8"?>
<svg width="16px" height="16px" viewBox="0 0 16 16" version="1.1" xmlns="http://www.w3.org/2000/svg" xmlns:xlink="http://www.w3.org/1999/xlink">
    <title>多项选择</title>
    <g id="表单管理" stroke="none" stroke-width="1" fill="none" fill-rule="evenodd">
        <g id="表单详情-固定表单" transform="translate(-34.000000, -434.000000)" fill="#4A4C51" fill-rule="nonzero">
            <g id="编组-10备份-4" transform="translate(16.000000, 424.000000)">
                <g id="编组-13" transform="translate(18.000000, 10.000000)">
                    <path d="M13.9230769,0.923076923 C14.560021,0.923818727 15.0761813,1.43997896 15.0769231,2.07692308 L15.0769231,13.9230769 C15.0761813,14.560021 14.560021,15.0761813 13.9230769,15.0769231 L2.07692308,15.0769231 C1.43997896,15.0761813 0.923818727,14.560021 0.923076923,13.9230769 L0.923076923,2.07692308 C0.923818727,1.43997896 1.43997896,0.923818727 2.07692308,0.923076923 L13.9230769,0.923076923 M13.9230769,0 L2.07692308,0 C0.929870135,0 0,0.929870135 0,2.07692308 L0,13.9230769 C0,15.0701299 0.929870135,16 2.07692308,16 L13.9230769,16 C15.0701299,16 16,15.0701299 16,13.9230769 L16,2.07692308 C16,0.929870135 15.0701299,0 13.9230769,0 Z" id="形状"></path>
                    <path d="M12.4171035,4.97191336 C12.3050852,4.86096344 12.1535414,4.79911751 11.9958798,4.8 C11.8382182,4.80090152 11.6873838,4.86445822 11.5766281,4.97666852 L7.2431871,9.35676962 L5.32477533,7.38575385 C5.17731359,7.23096316 4.95808474,7.16728734 4.75064465,7.21899549 C4.54320457,7.27070365 4.37951296,7.42982924 4.32195849,7.63572389 C4.26440401,7.84161853 4.32185394,8.06256062 4.47241206,8.2143413 L6.81343909,10.6198603 C6.81433068,10.6216434 6.81700546,10.6216434 6.81819425,10.6234266 C6.81938304,10.6246154 6.81997744,10.626993 6.82116623,10.6281818 C6.85861315,10.6650343 6.90497601,10.6876213 6.94896128,10.712586 C6.97214271,10.7250683 6.99056897,10.7458721 7.0143448,10.7553824 C7.15740334,10.8144581 7.31795953,10.8148851 7.46133028,10.7565712 C7.48421451,10.7470609 7.50234358,10.7280402 7.52433621,10.7161523 C7.56891588,10.6911877 7.61527874,10.6691951 7.65332006,10.6317482 C7.65450885,10.6305594 7.65510324,10.6281818 7.65688643,10.626993 C7.65807522,10.6252098 7.65985841,10.6246154 7.66164159,10.6234266 L12.4209671,5.81238872 C12.6518633,5.57913026 12.6500007,5.20287434 12.4168063,4.97191336 L12.4171035,4.97191336 Z" id="路径"></path>
                </g>
            </g>
        </g>
    </g>
</svg>