<?xml version="1.0" encoding="UTF-8"?>
<svg width="20px" height="20px" viewBox="0 0 20 20" version="1.1" xmlns="http://www.w3.org/2000/svg" xmlns:xlink="http://www.w3.org/1999/xlink">
    <title>待提交</title>
    <g id="表单管理" stroke="none" stroke-width="1" fill="none" fill-rule="evenodd">
        <g id="表单详情-固定表单" transform="translate(-334.000000, -125.000000)" fill-rule="nonzero">
            <g id="编组-27" transform="translate(310.000000, 117.000000)">
                <g id="待提交-2" transform="translate(24.000000, 8.000000)">
                    <g id="待提交" transform="translate(1.000000, 0.000000)">
                        <path d="M11.79,0 C12.4701429,0 13.1271429,0.235029378 13.6157143,0.656332039 L17.2414286,3.78922366 C17.73,4.21177648 18,4.77934742 18,5.36817102 L18,17.7784723 C18,18.999875 16.8428571,20 15.4285714,20 L2.57142856,20 C1.15714285,20 0,18.999875 0,17.7784723 L0,2.22152768 C0,1.00012501 1.15714285,0 2.57142856,0 L11.79,0 Z" id="形状" fill="#666666"></path>
                        <path d="M8.85970469,4.4455557 C6.87484621,4.4455557 5.04076133,5.50446504 4.04833208,7.2234029 C3.05590284,8.94234076 3.05590284,11.0601595 4.04833208,12.7790974 C5.04076133,14.4980353 6.87484621,15.5569446 8.85970469,15.5569446 C11.92803,15.5569446 14.4153991,13.0695755 14.4153991,10.0012502 C14.4153991,6.93292483 11.92803,4.4455557 8.85970469,4.4455557 L8.85970469,4.4455557 Z" id="路径" fill="#EAEBEC"></path>
                        <path d="M9.01597422,5.31691461 C9.36851829,5.31691461 9.65355392,5.57819727 9.65355392,5.89948743 L9.65355392,9.96124516 L11.5150366,11.5489436 C11.7650678,11.7764721 11.7650678,12.1452682 11.5150366,12.3727966 L11.2137489,12.647831 C10.9556153,12.8758817 10.5680196,12.8758817 10.309886,12.647831 L8.42715062,11.0388799 C8.15461656,10.9726216 7.95209124,10.7475934 7.95209124,10.4763095 L7.95209124,5.90073759 C7.95209124,5.57819727 8.23962718,5.31691461 8.59092109,5.31691461 L9.01722438,5.31691461 L9.01597422,5.31691461 Z" id="路径" fill="#666666"></path>
                    </g>
                </g>
            </g>
        </g>
    </g>
</svg>