<?xml version="1.0" encoding="UTF-8"?>
<svg width="16px" height="16px" viewBox="0 0 16 16" version="1.1" xmlns="http://www.w3.org/2000/svg" xmlns:xlink="http://www.w3.org/1999/xlink">
    <title>手机</title>
    <g id="表单管理" stroke="none" stroke-width="1" fill="none" fill-rule="evenodd">
        <g id="表单详情-固定表单" transform="translate(-170.000000, -280.000000)" fill="#4A4C51" fill-rule="nonzero">
            <g id="编组-11备份-2" transform="translate(152.000000, 270.000000)">
                <g id="手机" transform="translate(18.000000, 10.000000)">
                    <path d="M3.7142857,0.864864857 C3.48695728,0.864864857 3.26893964,0.955984286 3.10819418,1.11817791 C2.94744871,1.28037153 2.85714285,1.50035329 2.85714285,1.72972971 L2.85714285,14.2702703 C2.85714285,14.747922 3.24089878,15.1351351 3.7142857,15.1351351 L12.2857143,15.1351351 C12.7591012,15.1351351 13.1428572,14.747922 13.1428572,14.2702703 L13.1428572,1.72972971 C13.1428572,1.25207804 12.7591012,0.864864857 12.2857143,0.864864857 L3.7142857,0.864864857 Z M3.7142857,0 L12.2857143,0 C13.2324881,0 14,0.774426378 14,1.72972971 L14,14.2702703 C14,15.2255736 13.2324881,16 12.2857143,16 L3.7142857,16 C2.76751186,16 2,15.2255736 2,14.2702703 L2,1.72972971 C2,0.774426378 2.76751186,0 3.7142857,0 Z" id="形状"></path>
                    <path d="M6.1081081,2.72972971 L10,2.72972971 C10.4324324,2.72972971 10.6486486,2.94594593 10.6486486,3.37837836 L10.6486486,3.37837836 C10.6486486,3.8108108 10.4324324,4.02702701 10,4.02702701 L6.1081081,4.02702701 C5.67567567,4.02702701 5.45945945,3.8108108 5.45945945,3.37837836 L5.45945945,3.37837836 C5.45945945,2.94594593 5.67567567,2.72972971 6.1081081,2.72972971 Z" id="路径"></path>
                    <path d="M8.05405405,11.3243243 L8.05405405,11.3243243 C8.77477478,11.3243243 9.13513514,11.6846847 9.13513514,12.4054054 L9.13513514,12.4054054 C9.13513514,13.1261261 8.77477478,13.4864865 8.05405405,13.4864865 L8.05405405,13.4864865 C7.33333332,13.4864865 6.97297296,13.1261261 6.97297296,12.4054054 L6.97297296,12.4054054 C6.97297296,11.6846847 7.33333332,11.3243243 8.05405405,11.3243243 L8.05405405,11.3243243 Z" id="路径"></path>
                </g>
            </g>
        </g>
    </g>
</svg>