<?xml version="1.0" encoding="UTF-8"?>
<svg width="16px" height="16px" viewBox="0 0 16 16" version="1.1" xmlns="http://www.w3.org/2000/svg" xmlns:xlink="http://www.w3.org/1999/xlink">
    <title>数组</title>
    <g id="表单管理" stroke="none" stroke-width="1" fill="none" fill-rule="evenodd">
        <g id="表单详情-固定表单" transform="translate(-34.000000, -228.000000)" fill="#4A4C51" fill-rule="nonzero">
            <g id="编组-10备份" transform="translate(16.000000, 218.000000)">
                <g id="数字" transform="translate(18.000000, 10.000000)">
                    <path d="M13.3179283,12.4318725 C14.0494024,12.4239044 14.647012,12.1912351 15.1139442,11.7322709 C15.587251,11.2860558 15.8278884,10.6741036 15.8358566,9.89641434 C15.8358566,9.54741036 15.7625498,9.21434263 15.6143426,8.89721116 C15.459761,8.57848606 15.2063745,8.3059761 14.8589641,8.07968127 C15.2,7.84860558 15.4358566,7.58565737 15.5697211,7.28924303 C15.6828685,6.99442231 15.740239,6.68685259 15.740239,6.36812749 C15.7322709,5.73864542 15.5171315,5.1936255 15.0932271,4.7314741 C14.6501992,4.25816733 14.050996,4.01752988 13.2972112,4.00956175 C12.7027888,4.01752988 12.1912351,4.22948207 11.7625498,4.64541833 C11.32749,5.06613546 11.0788845,5.58247012 11.0183267,6.19601594 L12.2055777,6.19601594 C12.2820717,5.85498008 12.4286853,5.60318725 12.6486056,5.44063745 C12.8573705,5.27808765 13.0884462,5.19681275 13.3418327,5.19681275 C13.6940239,5.20478088 13.9824701,5.31633466 14.2055777,5.5314741 C14.4286853,5.75458167 14.5450199,6.04143426 14.5513944,6.38884462 C14.5513944,6.73306773 14.4398406,7.01354582 14.2167331,7.23027888 C13.9936255,7.45338645 13.6780876,7.56494024 13.2733068,7.56494024 L12.863745,7.56494024 L12.863745,8.61673307 L13.3641434,8.61673307 C13.7322709,8.61673307 14.0350598,8.72828685 14.27251,8.95139442 C14.514741,9.18247012 14.6406375,9.50756972 14.647012,9.92828685 C14.6390438,10.3410359 14.514741,10.659761 14.27251,10.8828685 C14.0334661,11.1219124 13.740239,11.2414343 13.3912351,11.2414343 C13.0661355,11.2414343 12.8047809,11.1521912 12.6071713,10.9737052 C12.4143426,10.8031873 12.2645418,10.5800797 12.1577689,10.3027888 L10.9705179,10.3027888 C11.0996016,10.9928287 11.3816733,11.5187251 11.8167331,11.8820717 C12.2533865,12.2501992 12.7537849,12.4318725 13.3179283,12.4318725 Z M9.60159363,12.3633466 L9.60159363,11.1760956 L6.43824701,11.1760956 L9.10278884,7.83585657 C9.43585657,7.41195219 9.60318725,6.92749004 9.60318725,6.38087649 C9.59521912,5.69880478 9.36573705,5.13625498 8.91633466,4.69322709 C8.47330677,4.24701195 7.89482072,4.01912351 7.18406375,4.01115538 C6.54820717,4.01912351 6.01115538,4.24223108 5.57609562,4.68207171 C5.14422311,5.13306773 4.91314741,5.70358566 4.88286853,6.39203187 L6.06533865,6.39203187 C6.10677291,6.012749 6.23904382,5.71952191 6.46374502,5.51075697 C6.67888446,5.30199203 6.9498008,5.19840637 7.27649402,5.19840637 C7.64462151,5.2063745 7.92828685,5.32589641 8.12908367,5.55697211 C8.32191235,5.78804781 8.41912351,6.05896414 8.41912351,6.36972112 C8.41912351,6.4876494 8.40318725,6.61195219 8.37290837,6.74422311 C8.32669323,6.88446215 8.24223108,7.03585657 8.11792829,7.19840637 L4.8812749,11.2446215 L4.8812749,12.3633466 L9.60159363,12.3633466 Z M2.36334661,12.3633466 L2.36334661,4.07968127 L1.17609562,4.07968127 L0,4.93705179 L0,6.19920319 L1.17609562,5.33545817 L1.17609562,12.3633466 L2.36334661,12.3633466 L2.36334661,12.3633466 Z M0,0 L16,0 L16,1 L0,1 L0,0 Z M0,15 L16,15 L16,16 L0,16 L0,15 Z" id="形状"></path>
                </g>
            </g>
        </g>
    </g>
</svg>