<?xml version="1.0" encoding="UTF-8"?>
<svg width="14px" height="14px" viewBox="0 0 14 14" version="1.1" xmlns="http://www.w3.org/2000/svg" xmlns:xlink="http://www.w3.org/1999/xlink">
    <title>新建</title>
    <g id="表单管理" stroke="none" stroke-width="1" fill="none" fill-rule="evenodd">
        <g id="任务列表" transform="translate(-1313.000000, -186.000000)" fill="#FFFFFF" fill-rule="nonzero">
            <g id="编组-10备份-2" transform="translate(1304.000000, 177.000000)">
                <g id="新建谱书" transform="translate(9.000000, 9.000000)">
                    <path d="M9,0.275541374 L9,3.45115174 C9,3.75402787 9.2449107,4 9.54830753,4 L12.7248358,4 C12.9697465,4 13.0922019,3.70446632 12.9185712,3.5319187 L9.46788909,0.0809664034 C9.29608607,-0.0915812116 9,0.0295692415 9,0.275541374 L9,0.275541374 Z" id="路径"></path>
                    <path d="M12.5416667,4.90054694 L9.5625,4.90054694 C8.80319444,4.90054694 8.1875,4.2739145 8.1875,3.50039067 L8.1875,0.467239647 C8.1875,0.20939837 7.98277778,0 7.72916667,0 L2.91666667,0 C2.41097222,0 2,0.417234066 2,0.93291662 L2,13.0670834 C2,13.5827659 2.41097222,14 2.91666667,14 L12.0833333,14 C12.5890278,14 13,13.5827659 13,13.0670834 L13,5.36778658 C13,5.10994531 12.7952778,4.90054694 12.5416667,4.90054694 Z M9.21875,8.98381516 L8.07291667,8.98381516 L8.07291667,10.1511329 C8.07291667,10.4714812 7.81472222,10.7340105 7.5,10.7340105 C7.18527778,10.7340105 6.92708333,10.4714812 6.92708333,10.1511329 L6.92708333,8.98381516 L5.78125,8.98381516 C5.46652778,8.98381516 5.20833333,8.72128586 5.20833333,8.4009376 C5.20833333,8.08058935 5.46652778,7.81806005 5.78125,7.81806005 L6.92708333,7.81806005 L6.92708333,6.65074227 C6.92708333,6.33039402 7.18527778,6.06786472 7.5,6.06786472 C7.81472222,6.06786472 8.07291667,6.33039402 8.07291667,6.65074227 L8.07291667,7.81806005 L9.21875,7.81806005 C9.53347222,7.81806005 9.79166667,8.08058935 9.79166667,8.4009376 C9.79166667,8.72128586 9.53347222,8.98381516 9.21875,8.98381516 Z" id="形状"></path>
                </g>
            </g>
        </g>
    </g>
</svg>