<?xml version="1.0" encoding="UTF-8"?>
<svg width="14px" height="14px" viewBox="0 0 14 14" version="1.1" xmlns="http://www.w3.org/2000/svg" xmlns:xlink="http://www.w3.org/1999/xlink">
    <title>查看表单</title>
    <g id="表单管理" stroke="none" stroke-width="1" fill="none" fill-rule="evenodd">
        <g id="协作进度" transform="translate(-1233.000000, -78.000000)" fill="#FFFFFF" fill-rule="nonzero">
            <g id="编组-10备份-3" transform="translate(1224.000000, 69.000000)">
                <g id="表单" transform="translate(9.000000, 9.000000)">
                    <path d="M12.7655309,2.53790222 L5.79722099,1.15289318 C5.68959889,1.44627147 5.58385336,1.73328658 5.47899009,2.02066529 C4.77869727,3.93994506 4.07790031,5.85904302 3.37927398,7.77893812 C3.29499685,8.01057244 3.15968851,8.18298009 2.90273989,8.21992859 C2.54270653,8.27168724 2.16483185,7.9295291 2.34641,7.43890571 C2.57537827,6.82026321 2.80064944,6.20027814 3.02692892,5.5806427 C3.65235541,3.8680759 4.27744581,2.15542519 4.90273226,0.442816441 C5.03805461,0.0722127176 5.26681282,-0.0550791727 5.65061127,0.0211672991 C8.26031745,0.539578975 10.8701077,1.05745922 13.4800099,1.57487796 C13.9039163,1.6589141 14.0900318,1.95666972 13.9583225,2.36292132 C13.0261206,5.23901599 12.0803065,8.11050958 10.9638796,10.9222311 C10.7166499,11.5448733 10.4316649,12.1500762 10.0451217,12.7025414 C9.47898884,13.5117162 8.71265233,13.9373231 7.71745958,13.9947597 C7.13707051,14.0282679 6.60711049,13.8989901 6.09189685,13.6668384 C4.62827842,13.0072896 3.16978552,12.336371 1.70347828,11.6828777 C1.28192458,11.4950026 0.891656206,11.2765842 0.592877113,10.9183153 C0.116272996,10.3467464 -0.0398455568,9.67796754 0.00834281235,8.95245132 C0.0246716814,8.70660819 0.0685607686,8.46258312 0.102618924,8.19595822 C0.167220188,8.21871189 0.212607722,8.2327249 0.256510813,8.25042997 C2.22142273,9.04303246 4.18583049,9.83689361 6.15203079,10.6262656 C6.25374312,10.6670879 6.28684899,10.7124554 6.28544857,10.8239022 C6.27944078,11.2993658 6.32440819,11.7676551 6.54839098,12.2004503 C6.81951182,12.7243721 7.34081727,12.9678518 7.92823643,12.8841652 C8.57290466,12.7923394 8.97432036,12.3937097 9.29452584,11.8761511 C9.68994775,11.2370205 9.95944411,10.5395303 10.2269099,9.84206808 C11.0652278,7.65582776 11.8126867,5.43775749 12.5440548,3.21412116 C12.6169325,2.99254209 12.6892781,2.77080918 12.7655309,2.53790222 Z" id="路径"></path>
                    <path d="M9.28112987,9.51340424 C9.28720736,9.88324694 8.94109764,10.1412921 8.56363643,10.0217388 C7.78279736,9.77439668 7.00620555,9.51319272 6.23057775,9.24957738 C5.9799615,9.16440371 5.83372445,8.92368937 5.85612036,8.68109952 C5.87906115,8.43241778 6.06282497,8.2362222 6.32938241,8.20005159 C6.42034921,8.18771269 6.52194812,8.20404234 6.61052583,8.23283781 C7.36343638,8.47761341 8.11493584,8.72687332 8.86579261,8.97806515 C9.14018792,9.06985247 9.27685467,9.25204516 9.28112987,9.51340424 Z M10.1653981,7.29599792 C10.1781399,7.59268151 9.93026199,7.85047289 9.63397373,7.84194142 C9.55622541,7.83953728 9.47919996,7.82609334 9.40516661,7.80200569 C8.65774025,7.55721148 7.911002,7.31028205 7.16496084,7.06122036 C6.84591342,6.95464045 6.68507641,6.68111169 6.76221167,6.38933545 C6.83753067,6.10438439 7.10358514,5.92910149 7.39464815,6.00192216 C7.66448883,6.06938422 7.92703652,6.16708011 8.1919733,6.25404469 C8.70893741,6.42374336 9.22566401,6.59420352 9.74183177,6.76636997 C10.0180992,6.85853804 10.1540395,7.03140957 10.1653981,7.29599792 L10.1653981,7.29599792 Z M11.128073,4.93080682 C11.1352681,5.24226889 10.8475443,5.52111395 10.5462264,5.46197184 C10.210651,5.39608916 9.88130674,5.29688439 9.55049553,5.20750844 C9.07370898,5.07869868 8.59757662,4.94743456 8.12211706,4.81372122 C7.87862615,4.74522974 7.72541744,4.58579703 7.6988581,4.32762491 C7.67604305,4.10589133 7.77069826,3.9339223 7.95706073,3.81522912 C8.11740875,3.71313353 8.2877462,3.72819404 8.46031906,3.77609718 C9.00231965,3.92657537 9.54440406,4.07671512 10.0864605,4.22692538 C10.2980132,4.28554574 10.5111306,4.3389203 10.7207971,4.40370305 C10.978385,4.48326429 11.1221911,4.67570885 11.128073,4.93080682 L11.128073,4.93080682 Z M5.71445191,5.49092243 C6.0649486,5.49580158 6.32964787,5.7345699 6.32996946,6.04608837 C6.3302626,6.3386261 6.07629326,6.59064992 5.78446183,6.58742065 C5.43490121,6.58357091 5.17154318,6.34542307 5.17059076,6.03231111 C5.16969898,5.73661463 5.42059465,5.48683296 5.71445191,5.49092243 L5.71445191,5.49092243 Z M6.61542974,4.31671028 C6.2703958,4.31036455 6.01032102,4.07076424 6.01484771,3.76341984 C6.01931851,3.4601226 6.26377343,3.22438612 6.56714511,3.23090106 C6.92602455,3.23860054 7.17995198,3.47430881 7.17130378,3.79170765 C7.16290706,4.10037761 6.92775699,4.32246373 6.61542974,4.31671028 L6.61542974,4.31671028 Z M4.8710915,7.59536082 C5.21484008,7.60152322 5.46752407,7.83834551 5.46352829,8.15069598 C5.45970017,8.45008708 5.22091758,8.68841825 4.93039945,8.68284812 C4.56221515,8.67579732 4.3035375,8.44479898 4.30774284,8.12685018 C4.31180847,7.82159281 4.55750684,7.58977658 4.8710915,7.59536082 L4.8710915,7.59536082 Z" id="形状" stroke="#FFFFFF" stroke-width="0.1"></path>
                </g>
            </g>
        </g>
    </g>
</svg>