<?xml version="1.0" encoding="UTF-8"?>
<svg width="16px" height="16px" viewBox="0 0 16 16" version="1.1" xmlns="http://www.w3.org/2000/svg" xmlns:xlink="http://www.w3.org/1999/xlink">
    <title>表单分配</title>
    <defs>
        <linearGradient x1="50%" y1="-2.41187448e-13%" x2="50%" y2="100%" id="linearGradient-1">
            <stop stop-color="#76A8F4" offset="0%"></stop>
            <stop stop-color="#2F68BD" offset="100%"></stop>
        </linearGradient>
        <linearGradient x1="50%" y1="-2.41187448e-13%" x2="50%" y2="100%" id="linearGradient-2">
            <stop stop-color="#76A8F4" offset="0%"></stop>
            <stop stop-color="#2F68BD" offset="100%"></stop>
        </linearGradient>
    </defs>
    <g id="表单管理" stroke="none" stroke-width="1" fill="none" fill-rule="evenodd">
        <g id="任务概览" transform="translate(-40.000000, -317.000000)">
            <g id="任务-2" transform="translate(40.000000, 317.000000)">
                <g id="任务" transform="translate(1.241639, 0.000000)">
                    <path d="M9.0386408,8.68377719 C10.4298363,8.09485369 12.1420844,8.40295721 13.3779907,9.26117647 C13.4508833,9.31191511 13.5465561,9.31894895 13.6263944,9.27943904 C13.7062328,9.23992914 13.7570598,9.16039642 13.7583611,9.07294119 L13.7583611,0.941176478 C13.7583611,0.421379071 13.3272279,0 12.7953981,0 L0.96296297,0 C0.431133207,0 0,0.421379062 0,0.941176478 L0,15.0588235 C0,15.578621 0.431133216,16 0.96296297,16 L7.58984256,15.9829184 C7.68615695,15.9815961 7.77239346,15.9242892 7.80906876,15.8372357 C7.84574406,15.7501822 7.8257973,15.650142 7.75836108,15.5829184 C6.80576848,14.448014 6.39156388,13.1885549 6.56361545,11.9273224 C6.76858739,10.4591478 7.64744535,9.2727007 9.0386408,8.68377719 Z M2.25836108,4 L8.25836108,4 C8.53450346,4 8.75836108,4.22385763 8.75836108,4.5 C8.75836108,4.77614237 8.53450346,5 8.25836108,5 L2.25836108,5 C1.98221871,5 1.75836108,4.77614237 1.75836108,4.5 C1.75836108,4.22385763 1.98221871,4 2.25836108,4 Z M2.25836108,8 C1.98221871,8 1.75836108,7.77614237 1.75836108,7.5 C1.75836108,7.22385763 1.98221871,7 2.25836108,7 L5.25836108,7 C5.53450346,7 5.75836108,7.22385763 5.75836108,7.5 C5.75836108,7.77614237 5.53450346,8 5.25836108,8 L2.25836108,8 Z" id="形状" fill="url(#linearGradient-1)"></path>
                    <path d="M13.9207987,10.7975193 C13.0340415,9.33120938 11.2007443,8.74485894 9.62762532,9.42441733 C8.05450635,10.1039757 7.22479286,11.8406977 7.6846213,13.491433 C8.14444974,15.1421683 9.75257102,16.1998477 11.4504828,15.9682823 C13.1483946,15.736717 14.4145361,14.2870386 14.4155039,12.5734588 C14.414111,11.9476539 14.2431504,11.3339233 13.9207987,10.7975193 L13.9207987,10.7975193 Z M12.9313882,13.5628401 L10.9525671,13.5628401 C10.8213631,13.5628401 10.6955329,13.510721 10.6027577,13.4179485 C10.5099825,13.325176 10.4578619,13.1993495 10.4578619,13.0681494 L10.4578619,11.0893868 C10.4578619,10.8161767 10.679349,10.5946962 10.9525671,10.5946962 C11.2257853,10.5946962 11.4472724,10.8161767 11.4472724,11.0893868 L11.4472724,12.5734588 L12.9313882,12.5734588 C13.2046063,12.5734588 13.4260934,12.7949393 13.4260934,13.0681494 C13.4260934,13.3413595 13.2046063,13.5628401 12.9313882,13.5628401 L12.9313882,13.5628401 Z" id="形状" fill="url(#linearGradient-2)"></path>
                </g>
            </g>
        </g>
    </g>
</svg>