<?xml version="1.0" encoding="UTF-8"?>
<svg width="16px" height="16px" viewBox="0 0 16 16" version="1.1" xmlns="http://www.w3.org/2000/svg" xmlns:xlink="http://www.w3.org/1999/xlink">
    <title>表格</title>
    <g id="表单管理" stroke="none" stroke-width="1" fill="none" fill-rule="evenodd">
        <g id="表单详情-固定表单" transform="translate(-34.000000, -588.000000)" fill="#4A4C51" fill-rule="nonzero" stroke="#4A4C51" stroke-width="0.14">
            <g id="编组-10备份-8" transform="translate(16.000000, 578.000000)">
                <g id="24gl-table" transform="translate(18.000000, 10.000000)">
                    <g id="形状-4" transform="translate(0.200000, 1.000000)">
                        <path d="M14.7136364,13.7142857 L0.886363631,13.7142857 C0.397066313,13.7137263 0.000549523507,13.3101002 0,12.8120301 L0,0.902255633 C0.000549532663,0.404185496 0.39706632,0.000559385475 0.886363631,0 L14.7136364,0 C15.2029337,0.000559385475 15.5994505,0.404185496 15.6,0.902255633 L15.6,12.8120301 C15.5994505,13.3101002 15.2029337,13.7137263 14.7136364,13.7142857 L14.7136364,13.7142857 Z M10.6363636,12.9924812 L14.7136364,12.9924812 C14.8115414,12.9924812 14.8909091,12.9116905 14.8909091,12.8120301 L14.8909091,9.38345865 L10.6363636,9.38345865 L10.6363636,12.9924812 Z M5.67272727,12.9924812 L9.92727273,12.9924812 L9.92727273,9.38345865 L5.67272727,9.38345865 L5.67272727,12.9924812 Z M0.709090899,9.38345865 L0.709090899,12.8120301 C0.709090899,12.9116905 0.788458604,12.9924812 0.886363631,12.9924812 L4.96363636,12.9924812 L4.96363636,9.38345865 L0.709090899,9.38345865 Z M10.6363636,8.66165413 L14.8909091,8.66165413 L14.8909091,5.05263158 L10.6363636,5.05263158 L10.6363636,8.66165413 Z M5.67272727,8.66165413 L9.92727273,8.66165413 L9.92727273,5.05263158 L5.67272727,5.05263158 L5.67272727,8.66165413 Z M0.709090899,8.66165413 L4.96363636,8.66165413 L4.96363636,5.05263158 L0.709090899,5.05263158 L0.709090899,8.66165413 Z M14.8909091,4.33082707 L14.8909091,0.902255633 C14.8909091,0.802595231 14.8115414,0.721804517 14.7136364,0.721804517 L0.886363631,0.721804517 C0.788458611,0.721804517 0.709090899,0.802595231 0.709090899,0.902255633 L0.709090899,4.33082707 L14.8909091,4.33082707 Z" id="形状"></path>
                    </g>
                </g>
            </g>
        </g>
    </g>
</svg>