<?xml version="1.0" encoding="UTF-8"?>
<svg width="14px" height="14px" viewBox="0 0 14 14" version="1.1" xmlns="http://www.w3.org/2000/svg" xmlns:xlink="http://www.w3.org/1999/xlink">
    <title>保存</title>
    <g id="表单管理" stroke="none" stroke-width="1" fill="none" fill-rule="evenodd">
        <g id="表单详情-退回修改" transform="translate(-1160.000000, -78.000000)" fill="#FFFFFF" fill-rule="nonzero" stroke="#FFFFFF" stroke-width="0.2">
            <g id="编组-10" transform="translate(1144.000000, 69.000000)">
                <g id="保存" transform="translate(16.000000, 9.000000)">
                    <path d="M12.7395556,4.84622222 L9.15377778,1.26044444 C8.98711757,1.09373389 8.76106206,1 8.52533333,1 L1.88888889,1 C1.39796911,1 1,1.39796911 1,1.88888889 L1,12.1111111 C1,12.6020309 1.39796911,13 1.88888889,13 L12.1111111,13 C12.6020309,13 13,12.6020309 13,12.1111111 L13,5.47466667 C13,5.23893794 12.9062661,5.01288243 12.7395556,4.84622222 Z M10,12 L4,12 L4,10 L10,10 L10,12 Z M12,12 L10.9130435,12 L10.9130435,9.60869565 C10.9130435,9.36857185 10.7183847,9.17391304 10.4782609,9.17391304 L3.52173913,9.17391304 C3.28161533,9.17391304 3.08695652,9.36857185 3.08695652,9.60869565 L3.08695652,12 L2,12 L2,2 L3.08695652,2 L3.08695652,3.95652174 C3.08695652,4.19664554 3.28161533,4.39130435 3.52173913,4.39130435 L7,4.39130435 C7.2401238,4.39130435 7.43478261,4.19664554 7.43478261,3.95652174 L7.43478261,2 L8.49217391,2 L12,5.50782609 L12,12 Z" id="形状"></path>
                </g>
            </g>
        </g>
    </g>
</svg>