<?xml version="1.0" encoding="UTF-8"?>
<svg width="16px" height="16px" viewBox="0 0 16 16" version="1.1" xmlns="http://www.w3.org/2000/svg" xmlns:xlink="http://www.w3.org/1999/xlink">
    <title>分割线</title>
    <g id="表单管理" stroke="none" stroke-width="1" fill="none" fill-rule="evenodd">
        <g id="表单详情-固定表单" transform="translate(-34.000000, -690.000000)" fill="#4A4C51" fill-rule="nonzero">
            <g id="编组-10备份-9" transform="translate(16.000000, 680.000000)">
                <g id="分割线" transform="translate(18.000000, 10.000000)">
                    <path d="M14.4295889,5.27026797 L1.57000538,5.27026797 C0.702915351,5.27026797 0,4.56969961 0,3.70550474 L0,0.421560849 C0.0494444499,0.176386879 0.265533899,0 0.516449138,0 C0.767364377,0 0.983453826,0.176386879 1.03289828,0.421560849 L1.03289828,3.70550474 C1.03289828,3.98977937 1.26412043,4.22022949 1.54934741,4.22022949 L14.4295889,4.22022949 C14.7148159,4.22022949 14.9460381,3.98977937 14.9460381,3.70550474 L14.9460381,0.421560849 C14.9954825,0.176386879 15.211572,0 15.4624872,0 C15.7134024,0 15.9294919,0.176386879 15.9789363,0.421560849 L15.9789363,3.70550474 C15.9735005,4.55945901 15.2862569,5.25354062 14.4295889,5.27026797 L14.4295889,5.27026797 Z M15.4728162,15.9999998 C15.1818847,15.9999998 14.9460381,15.7649406 14.9460381,15.4749804 L14.9460381,12.1704476 C14.9460381,11.8861729 14.7148159,11.6557228 14.4295889,11.6557228 L1.57000538,11.6557228 C1.2847784,11.6557228 1.05355624,11.8861729 1.05355624,12.1704476 L1.05355624,15.4543915 C1.00411179,15.6995654 0.788022343,15.8759523 0.537107104,15.8759523 C0.286191864,15.8759523 0.0701024154,15.6995654 0.0206579655,15.4543915 L0.0206579655,12.1704476 C0.031783958,11.3222593 0.718975569,10.6373622 1.57000538,10.6262733 L14.4295889,10.6262733 C15.286404,10.631691 15.9828109,11.31664 15.9995943,12.1704476 L15.9995943,15.4543915 C16.0052165,15.5971671 15.9522088,15.7360593 15.8528028,15.8390186 C15.7533969,15.941978 15.6161804,16.0001096 15.4728162,15.9999998 L15.4728162,15.9999998 Z M13.7168891,8.51446787 L2.27237621,8.43211191 C1.9838374,8.42104321 1.75571342,8.18458643 1.75592692,7.89679817 C1.75592692,7.75848218 1.81172634,7.62597533 1.91082492,7.52914426 C2.0099235,7.43231318 2.14395358,7.3793071 2.28270519,7.38207343 L13.7168891,7.46442939 C14.0071752,7.47530696 14.2383914,7.71026963 14.2436672,7.99974312 C14.2436672,8.13805911 14.187868,8.27056597 14.0887694,8.36739704 C13.9896708,8.46422811 13.8556407,8.51723419 13.7168891,8.51446787 Z"></path>
                </g>
            </g>
        </g>
    </g>
</svg>