<?xml version="1.0" encoding="UTF-8"?>
<svg width="16px" height="16px" viewBox="0 0 16 16" version="1.1" xmlns="http://www.w3.org/2000/svg" xmlns:xlink="http://www.w3.org/1999/xlink">
    <title>删除</title>
    <g id="表单管理" stroke="none" stroke-width="1" fill="none" fill-rule="evenodd">
        <g id="组织管理-组织信息" transform="translate(-376.000000, -299.000000)" fill="#2F68BD" fill-rule="nonzero" stroke="#2F68BD" stroke-width="0.25">
            <g id="删除-2" transform="translate(376.000000, 299.000000)">
                <g id="删除" transform="translate(2.000000, 0.500000)">
                    <path d="M11,3 L11,14 C11,14.5522847 10.5522847,15 10,15 L2,15 C1.44771525,15 1,14.5522847 1,14 L1,3 L0,3 L0,2 L12,2 L12,3 L11,3 Z M2,3 L2,14 L10,14 L10,3 L2,3 Z" id="形状"></path>
                    <path d="M4,5 L5,5 L5,12 L4,12 L4,5 Z M7,5 L8,5 L8,12 L7,12 L7,5 Z M3,1 L3,0 L9,0 L9,1 L3,1 Z" id="形状"></path>
                </g>
            </g>
        </g>
    </g>
</svg>