<?xml version="1.0" encoding="UTF-8"?>
<svg width="20px" height="20px" viewBox="0 0 20 20" version="1.1" xmlns="http://www.w3.org/2000/svg" xmlns:xlink="http://www.w3.org/1999/xlink">
    <title>审核中</title>
    <g id="表单管理" stroke="none" stroke-width="1" fill="none" fill-rule="evenodd">
        <g id="表单详情-浮动表单" transform="translate(-334.000000, -125.000000)" fill="#2F68BD" fill-rule="nonzero">
            <g id="编组-27" transform="translate(310.000000, 117.000000)">
                <g id="待提交-2" transform="translate(24.000000, 8.000000)">
                    <g id="审核中" transform="translate(0.500000, 0.000000)">
                        <path d="M15.7992831,12.5992908 C17.09319,12.5992908 18.2508961,13.1382979 19,14.0815603 L19,12.5319149 C18.9318996,11.7907801 18.2508961,11.1843972 17.5017921,11.1843972 L13.9605735,11.1843972 C13.0071684,11.1843972 12.2580645,11.1170213 12.1899641,10.1737589 C11.9856631,7.61347518 14.7777778,7.81560285 14.7777778,4.71631206 C14.7777778,2.15602836 12.6666667,0 9.46594981,0 C6.26523296,0.134751779 4.15412185,2.29078014 4.15412185,4.91843972 C4.15412185,8.01773049 6.87813618,7.81560283 6.74193548,10.3758865 C6.67383513,11.3191489 5.85663081,11.3865248 4.97132615,11.3865248 L1.43010752,11.3865248 C0.681003573,11.3865248 0,12.0602837 0,12.8014185 L0,18.5283688 C0,18.7978723 0.204301074,19 0.476702499,19 L12.1218638,19 C11.781362,18.393617 11.5770609,17.6524823 11.5770609,16.9113475 C11.5770609,14.4858156 13.4157706,12.5992908 15.7992831,12.5992908 Z" id="路径"></path>
                        <path d="M15.675,13.3 C13.8206731,13.3 12.35,14.7706731 12.35,16.625 C12.35,18.4793269 13.8206731,19.95 15.675,19.95 C17.5293269,19.95 19,18.4793269 19,16.625 C19,14.7706731 17.5293269,13.3 15.675,13.3 Z M17.3375,18.2235577 C17.2096154,18.4153846 16.9538462,18.5432692 16.6980769,18.4153846 L15.4192308,17.6480769 C15.2274039,17.5841346 15.1634615,17.3923077 15.1634615,17.2644231 L15.1634615,15.1543269 C15.1634615,14.8985577 15.3552885,14.7067308 15.6110577,14.7067308 C15.8668269,14.7067308 16.0586538,14.8985577 16.0586538,15.1543269 L16.0586538,17.0086539 L17.1456731,17.6480769 C17.3375,17.7120192 17.4014423,17.9677885 17.3375,18.2235577 L17.3375,18.2235577 Z" id="形状"></path>
                    </g>
                </g>
            </g>
        </g>
    </g>
</svg>