<?xml version="1.0" encoding="UTF-8"?>
<svg width="14px" height="14px" viewBox="0 0 14 14" version="1.1" xmlns="http://www.w3.org/2000/svg" xmlns:xlink="http://www.w3.org/1999/xlink">
    <title>提交</title>
    <g id="表单管理" stroke="none" stroke-width="1" fill="none" fill-rule="evenodd">
        <g id="表单详情-退回修改" transform="translate(-1256.000000, -78.000000)" fill="#FFFFFF" fill-rule="nonzero">
            <g id="编组-10备份-3" transform="translate(1240.000000, 69.000000)">
                <g id="保存" transform="translate(16.000000, 9.000000)">
                    <g id="发送-提交" transform="translate(0.000000, 0.500000)">
                        <path d="M13.7937133,0.0670785613 C13.6484321,-0.0223595204 13.4593916,-0.0223595204 13.3123601,0.0670785613 L0.195046896,8.19130867 C0.0602679907,8.27424217 -0.014998151,8.42059539 0.00250560285,8.57020091 C0.0182589814,8.71980643 0.123281505,8.84989818 0.273813788,8.90518718 L3.69229692,10.1768341 L5.30089191,12.7933045 C5.3796588,12.9217701 5.52669033,13.0014513 5.68597449,12.9998252 C5.84000753,12.9998252 5.98353831,12.9233963 6.0623052,12.8014352 L6.9725004,11.3964443 L11.2101592,12.9721807 C11.2609201,12.9916944 11.3169321,13.0014513 11.3711938,12.9998252 C11.5882403,13.0030775 11.7737801,12.8567242 11.8087876,12.6583343 L13.9950065,0.471989149 C14.0212621,0.312626749 13.9424952,0.153264349 13.7937133,0.0670785613 Z M6.18756608,12 L5,10.0636436 L13,2 L6.18756608,12 Z" id="形状"></path>
                    </g>
                </g>
            </g>
        </g>
    </g>
</svg>