<?xml version="1.0" encoding="UTF-8"?>
<svg width="16px" height="16px" viewBox="0 0 16 16" version="1.1" xmlns="http://www.w3.org/2000/svg" xmlns:xlink="http://www.w3.org/1999/xlink">
    <title>数据采集-blue</title>
    <g id="表单管理" stroke="none" stroke-width="1" fill="none" fill-rule="evenodd">
        <g id="切图" transform="translate(-646.000000, -89.000000)" fill="#2F68BD" fill-rule="nonzero">
            <g id="编组-4" transform="translate(487.000000, 7.000000)">
                <g id="编组-6备份" transform="translate(149.000000, 71.000000)">
                    <g id="面性-表单编辑-(1)" transform="translate(10.000000, 11.000000)">
                        <path d="M15,9.73099416 L15,4.50994153 L10.3856771,0 L3.26614583,0 C2.55859375,0 2,0.561403509 2,1.23508772 L2,14.7649123 C2,15.4385965 2.55859375,16 3.26614583,16 L13.6966146,16 C14.4041667,16 14.9627604,15.4385965 14.9627604,14.7649123 L14.9627604,10.0678363 C14.9255208,10.2549708 14.8510417,10.4046784 14.7393229,10.5169591 L14.3669271,10.8912281 L13.1007813,9.61871346 L13.4731771,9.24444444 C13.7710938,9.01988304 14.2552083,8.94502923 14.6276042,9.16959065 C14.8510417,9.31929825 14.9627604,9.54385965 15,9.73099416 Z M4.60677083,4.54736842 L9.04166666,4.54736842 C9.45130208,4.54736842 9.78645833,4.88421053 9.78645833,5.29590644 C9.78645833,5.70760235 9.45130208,6.04444444 9.04166666,6.04444444 L4.60677083,6.04444444 C4.1971354,6.04444444 3.86197917,5.70760233 3.86197917,5.29590644 C3.86197917,4.88421054 4.19713542,4.54736842 4.60677083,4.54736842 Z M3.86197917,8.66432749 C3.86197917,8.25263158 4.19713542,7.91578947 4.60677083,7.91578947 L10.1588542,7.91578947 C10.5684896,7.91578947 10.9036458,8.25263158 10.9036458,8.66432749 C10.9036458,9.0760234 10.5684896,9.41286549 10.1588542,9.41286549 L4.60677083,9.41286549 C4.1971354,9.41286549 3.86197917,9.07602339 3.86197917,8.66432749 Z M10.8291667,14.5216374 C10.7919271,14.5590643 10.7546875,14.5964912 10.6802083,14.5964912 L9.60026041,14.7836257 C9.41406249,14.8210526 9.30234375,14.671345 9.30234375,14.4842105 L9.48854166,13.3988304 C9.48854166,13.3614035 9.52578124,13.2865497 9.56302083,13.2491228 L12.6911458,10.1052632 L13.9572917,11.3403509 L10.8291667,14.5216374 Z" id="数据采集-blue"></path>
                    </g>
                </g>
            </g>
        </g>
    </g>
</svg>