<?xml version="1.0" encoding="UTF-8"?>
<svg width="16px" height="16px" viewBox="0 0 16 16" version="1.1" xmlns="http://www.w3.org/2000/svg" xmlns:xlink="http://www.w3.org/1999/xlink">
    <title>浮动表单</title>
    <g id="表单管理" stroke="none" stroke-width="1" fill="none" fill-rule="evenodd">
        <g id="任务详情" transform="translate(-81.000000, -386.000000)" fill="#2F68BD" fill-rule="nonzero">
            <g id="编组-13" transform="translate(40.000000, 267.000000)">
                <g id="表单" transform="translate(41.000000, 119.000000)">
                    <path d="M14.5891781,2.90045968 L6.62539541,1.3175922 C6.50239874,1.65288168 6.3815467,1.98089894 6.26170296,2.30933176 C5.46136831,4.50279435 4.66045749,6.69604916 3.86202741,8.890215 C3.76571069,9.15493994 3.61107258,9.35197725 3.31741701,9.3942041 C2.90595032,9.45335685 2.47409354,9.06231897 2.68161142,8.50160653 C2.94328945,7.79458653 3.20074222,7.08603216 3.45934734,6.37787737 C4.17412047,4.42065818 4.88850949,2.46334308 5.60312258,0.506075933 C5.7577767,0.0825288201 6.01921466,-0.0629476259 6.45784145,0.0241911989 C9.4403628,0.616661686 12.4229802,1.20852482 15.4057256,1.79986052 C15.8901901,1.89590183 16.1028935,2.23619396 15.9523686,2.70048151 C14.8869949,5.98744685 13.8060646,9.26915381 12.5301481,12.4825498 C12.2475999,13.1941409 11.9219028,13.8858014 11.480139,14.5171902 C10.8331301,15.4419614 9.95731695,15.9283693 8.8199538,15.9940111 C8.15665201,16.0323062 7.55098341,15.8845601 6.96216783,15.6192438 C5.28946105,14.8654738 3.62261202,14.0987097 1.94683232,13.3518603 C1.46505666,13.1371459 1.01903566,12.8875248 0.677573844,12.4780746 C0.132883424,11.8248531 -0.0455377792,11.0605343 0.00953464268,10.2313729 C0.0281962073,9.95040936 0.0783551641,9.67152357 0.117278771,9.36680939 C0.191108786,9.39281358 0.242980253,9.40882846 0.293155215,9.42906282 C2.53876883,10.3348942 4.78380627,11.2421641 7.03089233,12.1443035 C7.14713499,12.1909576 7.18497027,12.2428062 7.18336979,12.370174 C7.17650375,12.9135609 7.22789507,13.4487487 7.4838754,13.9433718 C7.7937278,14.5421395 8.38950545,14.820402 9.06084163,14.7247603 C9.79760533,14.6198165 10.2563661,14.1642396 10.6223152,13.5727441 C11.074226,12.8423091 11.3822218,12.0451775 11.687897,11.2480778 C12.6459747,8.74951744 13.5002134,6.21457998 14.3360626,3.67328133 C14.4193515,3.4200481 14.5020321,3.16663906 14.5891781,2.90045968 Z" id="路径"></path>
                    <path d="M10.6070056,10.872462 C10.6139513,11.2951394 10.2183973,11.5900482 9.78701307,11.4534157 C8.89462555,11.1707391 8.00709205,10.8722202 7.12066028,10.5709456 C6.83424172,10.4736042 6.66711366,10.1985021 6.69270898,9.92125659 C6.71892703,9.63704889 6.92894283,9.41282537 7.2335799,9.37148753 C7.33754195,9.35738593 7.453655,9.37604839 7.55488667,9.4089575 C8.41535587,9.68870104 9.27421238,9.97356951 10.1323344,10.2606459 C10.4459291,10.3655457 10.6021196,10.5737659 10.6070056,10.872462 Z M11.6175978,8.33828334 C11.6321599,8.6773503 11.3488708,8.97196902 11.0102557,8.96221877 C10.9214005,8.95947117 10.8333714,8.94410668 10.7487618,8.91657793 C9.89456029,8.63681312 9.04114514,8.35460806 8.18852667,8.06996612 C7.82390105,7.94816052 7.64008733,7.63555622 7.72824191,7.30209766 C7.81432076,6.97643931 8.11838302,6.77611599 8.45102646,6.85933961 C8.75941581,6.93643911 9.05947031,7.04809156 9.3622552,7.14747965 C9.95307133,7.34142099 10.543616,7.53623259 11.133522,7.73299425 C11.4492563,7.83832919 11.6046165,8.03589665 11.6175978,8.33828334 L11.6175978,8.33828334 Z M12.7177977,5.63520779 C12.7260207,5.99116444 12.3971935,6.30984452 12.0528301,6.24225353 C11.6693154,6.16695904 11.292922,6.05358216 10.914852,5.95143822 C10.3699531,5.80422706 9.82580186,5.65421093 9.28241949,5.50139568 C9.00414417,5.4231197 8.82904851,5.2409109 8.79869497,4.94585705 C8.77262063,4.69244724 8.88079801,4.4959112 9.0937837,4.36026186 C9.27703857,4.24358118 9.47170994,4.26079319 9.66893606,4.31553963 C10.2883653,4.48751471 10.9078904,4.65910299 11.5273835,4.83077186 C11.7691579,4.89776656 12.0127207,4.95876605 12.2523396,5.03280349 C12.5467257,5.12373062 12.7110755,5.34366725 12.7177977,5.63520779 L12.7177977,5.63520779 Z M6.53080218,6.27533991 C6.93136983,6.28091609 7.23388328,6.55379417 7.23425081,6.90981528 C7.23458583,7.24414411 6.94433515,7.53217133 6.61081352,7.52848074 C6.21131567,7.52408104 5.91033507,7.25191208 5.90924658,6.89406984 C5.90822741,6.556131 6.19496531,6.27066624 6.53080218,6.27533991 L6.53080218,6.27533991 Z M7.56049113,4.93338317 C7.16616663,4.92613092 6.86893831,4.65230199 6.87411167,4.30105125 C6.87922115,3.95442582 7.15859821,3.68501271 7.5053087,3.69245836 C7.91545663,3.70125776 8.20565941,3.97063864 8.19577575,4.33338018 C8.1861795,4.68614584 7.91743656,4.93995855 7.56049113,4.93338317 L7.56049113,4.93338317 Z M5.56696171,8.68041236 C5.95981724,8.68745511 6.24859894,8.95810916 6.24403234,9.31508113 C6.23965734,9.65724238 5.96676294,9.92962086 5.63474222,9.92325499 C5.21396017,9.91519693 4.91832857,9.65119884 4.92313468,9.28782877 C4.92778111,8.93896321 5.20857925,8.67403038 5.56696171,8.68041236 L5.56696171,8.68041236 Z" id="形状"></path>
                </g>
            </g>
        </g>
    </g>
</svg>