<?xml version="1.0" encoding="UTF-8"?>
<svg width="16px" height="16px" viewBox="0 0 16 16" version="1.1" xmlns="http://www.w3.org/2000/svg" xmlns:xlink="http://www.w3.org/1999/xlink">
    <title>邮箱</title>
    <g id="表单管理" stroke="none" stroke-width="1" fill="none" fill-rule="evenodd">
        <g id="表单详情-固定表单" transform="translate(-34.000000, -280.000000)" fill="#4A4C51" fill-rule="nonzero">
            <g id="编组-10备份-2" transform="translate(16.000000, 270.000000)">
                <g id="邮箱" transform="translate(18.000000, 10.000000)">
                    <path d="M14.2291117,2 L1.77088833,2 C0.794683755,2 0,2.81007487 0,3.80518618 L0,12.1948138 C0,13.1899251 0.794683755,14 1.77088833,14 L14.2291117,14 C15.2053162,14 16,13.1899251 16,12.1948138 L16,3.80518618 C16,2.81007487 15.2053162,2 14.2291117,2 Z M15.0339986,12.1948138 C15.0339986,12.591958 14.6187102,13.0158671 14.2291117,13.0158671 L1.77088833,13.0158671 C1.38128979,13.0158671 0.971877476,12.591958 0.971877476,12.1948138 L0.971877476,3.80518618 C0.971877476,3.40804204 1.38128979,2.98560842 1.77088833,2.98560842 L14.2291117,2.98560842 C14.6187102,2.98560842 15.0339986,3.40804204 15.0339986,3.80518618 L15.0339986,12.1948138 Z" id="形状"></path>
                    <path d="M13.3016045,4.81351435 L7.99999027,8.15828353 L2.69837606,4.81351435 C2.45045325,4.65635195 2.12284028,4.73160624 1.96565842,4.97952905 C1.80849602,5.22745186 1.88375031,5.55506484 2.13167312,5.7122467 L7.70998498,9.23190233 C7.79852745,9.28725354 7.89592223,9.31381044 7.993317,9.31381044 L8.0110216,9.31381044 C8.10841637,9.31381044 8.2058306,9.28725354 8.29435362,9.23190233 L13.8726655,5.7122467 C14.1205883,5.5550843 14.1958426,5.22747132 14.0386802,4.97952905 C13.8770819,4.7293883 13.5494689,4.65635195 13.3015461,4.81351435 L13.3016045,4.81351435 Z" id="路径"></path>
                </g>
            </g>
        </g>
    </g>
</svg>