<?xml version="1.0" encoding="UTF-8"?>
<svg width="14px" height="14px" viewBox="0 0 14 14" version="1.1" xmlns="http://www.w3.org/2000/svg" xmlns:xlink="http://www.w3.org/1999/xlink">
    <title>配置大类</title>
    <g id="表单管理" stroke="none" stroke-width="1" fill="none" fill-rule="evenodd">
        <g id="合集详情" transform="translate(-1062.000000, -224.000000)" fill="#FFFFFF" fill-rule="nonzero">
            <g id="编组-10备份-5" transform="translate(1053.000000, 215.000000)">
                <g id="类别" transform="translate(9.000000, 9.000000)">
                    <path d="M3.36,4.62 C3.36,5.26433221 3.88233446,5.78666667 4.52666667,5.78666667 C5.17099887,5.78666667 5.69333333,5.26433221 5.69333333,4.62 C5.69333333,3.97566779 5.17099887,3.45333333 4.52666667,3.45333333 C3.88233446,3.45333333 3.36,3.97566779 3.36,4.62 Z" id="路径"></path>
                    <path d="M13.8331404,7.61943156 L6.47212347,0.259625074 C6.36769187,0.155210645 6.22939056,0.0959483998 6.08262181,0.0931263749 L0.573149024,0 C0.420735326,0.00564401898 0.273966591,0.0564402361 0.163890043,0.163676674 C0.0566359689,0.273735136 -0.00263602315,0.420479738 9.00491195e-05,0.572868374 L0.0933281412,6.0814352 C0.0961506148,6.2281798 0.155422607,6.36645838 0.259854223,6.4708728 L7.62087113,13.8335013 C7.73094769,13.9435598 7.87489395,14 8.01884021,14 C8.16278648,14 8.30673275,13.9435598 8.4168093,13.8335013 L13.8331404,8.41806088 C13.9399083,8.3126068 14,8.16880018 14,8.01874622 C14,7.86869226 13.9399083,7.72488564 13.8331404,7.61943156 L13.8331404,7.61943156 Z M4.45687575,6.60270106 C3.35491748,6.60270106 2.45654683,5.70447812 2.45654683,4.60270106 C2.45654683,3.50092403 3.3549175,2.60270106 4.45687575,2.60270106 C5.55883399,2.60270106 6.45720466,3.50092401 6.45720466,4.60270106 C6.45720466,5.70447814 5.55883399,6.60270106 4.45687575,6.60270106 Z M7.82126691,10.0774038 L7.04508606,9.25619835 L9.29177681,7.13122355 L10.0679577,7.94960693 L7.82126691,10.0774038 L7.82126691,10.0774038 Z" id="形状"></path>
                </g>
            </g>
        </g>
    </g>
</svg>