<?xml version="1.0" encoding="UTF-8"?>
<svg width="16px" height="16px" viewBox="0 0 16 16" version="1.1" xmlns="http://www.w3.org/2000/svg" xmlns:xlink="http://www.w3.org/1999/xlink">
    <title>首页-white</title>
    <g id="表单管理" stroke="none" stroke-width="1" fill="none" fill-rule="evenodd">
        <g id="切图" transform="translate(-526.000000, -19.000000)" fill="#FFFFFF" fill-rule="nonzero">
            <g id="编组-4" transform="translate(487.000000, 7.000000)">
                <g id="编组-3" transform="translate(27.000000, 1.000000)">
                    <g id="首页" transform="translate(12.000000, 11.000000)">
                        <path d="M3.79795789,9.91089556 L7.08882263,9.91089556 C7.65085389,9.91089556 8.03036053,10.2904479 8.03036053,10.8507395 L8.03036053,15.0583486 C8.03036053,15.6186402 7.46832927,15.9981926 6.906298,15.9981926 L2.85641999,15.9981926 C2.29438872,15.9981926 1.93114665,15.6186402 1.93114665,15.0583486 L1.93114665,10.8507395 C1.93114665,10.2904479 2.31065329,9.91089556 2.87268456,9.91089556 L3.79795789,9.91089556 Z M10.842324,9.91089556 L15.0584621,9.91089556 C15.6204934,9.91089556 16,10.3898545 16,10.9501461 L16,14.9932825 C16,15.5535741 15.5536279,16 14.9915966,16 L10.9417186,16 C10.3796874,16 9.90078612,15.6204476 9.90078612,15.060156 L9.90078612,10.8507395 C9.90078612,10.2904479 10.3796874,9.92716209 10.9417186,9.92716209 L10.842324,9.91089556 Z M10.842324,1.95656234 L15.0584621,1.95656234 C15.6204934,1.95656234 16,2.28731512 16,2.84760671 L16,7.08955629 C16,7.64984788 15.6204934,8.02940025 15.0584621,8.02940025 L10.842324,8.02940025 C10.2802928,8.02940025 9.90077972,7.64984788 9.90077972,7.08955629 L9.90077972,2.88013977 C9.89897895,2.31984818 10.2802928,1.95656234 10.842324,1.95656234 L10.842324,1.95656234 Z M1.28598536,4.16700304 L4.16300714,1.29686417 C4.56058552,0.901045275 5.20393964,0.901045275 5.60151803,1.29686417 L8.44601066,4.16881043 C8.84358905,4.56462933 8.84358905,5.20806097 8.44601066,5.60387987 L5.58525346,8.4595596 C5.18767507,8.8553785 4.54432095,8.8553785 4.14674257,8.4595596 L1.28598536,5.58761334 C0.904671546,5.18998705 0.904671546,4.54655541 1.28598536,4.16700304 Z" id="首页-white"></path>
                    </g>
                </g>
            </g>
        </g>
    </g>
</svg>