<?xml version="1.0" encoding="UTF-8"?>
<svg width="16px" height="16px" viewBox="0 0 16 16" version="1.1" xmlns="http://www.w3.org/2000/svg" xmlns:xlink="http://www.w3.org/1999/xlink">
    <title>编辑</title>
    <g id="表单管理" stroke="none" stroke-width="1" fill="none" fill-rule="evenodd">
        <g id="组织管理-组织信息" transform="translate(-340.000000, -299.000000)" fill="#2F68BD" fill-rule="nonzero">
            <g id="编辑-2" transform="translate(340.000000, 299.000000)">
                <g id="编辑" transform="translate(1.000000, 0.200000)">
                    <path d="M9.63170978,0.482245342 C10.568126,-0.454170882 11.7720897,0.214697858 12.0396372,0.482245342 L12.0396372,0.482245342 L13.5111484,2.08753031 C14.1800172,2.75639905 14.1800172,3.82658901 13.5111484,4.49545775 L13.5111484,4.49545775 L5.35094988,12.6556563 C5.35094988,12.6556563 5.21717612,12.7894301 5.08340238,12.7894301 L5.08340238,12.7894301 L0.668868725,13.9933938 C0.535094983,13.9933938 0.267547484,13.9933938 0.133773742,13.8596201 C0,13.7258463 0,13.5920726 0,13.3245251 L0,13.3245251 L1.20396372,8.9099914 L1.47151121,8.64244392 Z M2.14037995,10.2477289 L1.47151121,12.6556563 L3.87943865,11.9867876 L2.14037995,10.2477289 Z M8.69529355,3.02394655 L2.67547493,9.04376516 L4.94962863,11.4516926 L10.9694472,5.29810023 L8.69529355,3.02394655 Z M11.103221,1.28488782 C10.9694472,1.01734032 10.7018998,1.01734032 10.4343523,1.28488782 L10.4343523,1.28488782 L9.49793603,2.22130406 L11.9058635,4.49545775 L12.8422797,3.55904153 C12.9760535,3.42526777 12.9760535,3.02394653 12.708506,2.89017279 L12.708506,2.89017279 Z" id="形状结合"></path>
                    <path d="M0,14.9688687 C0,14.5675475 0.267547499,14.3 0.668868725,14.3 L12.708506,14.3 C13.1098272,14.3 13.3773747,14.5675475 13.3773747,14.9688687 C13.3773747,15.3701899 13.1098272,15.6377375 12.708506,15.6377375 L0.668868725,15.6377375 C0.267547484,15.6377375 0,15.37019 0,14.9688687 Z" id="路径"></path>
                </g>
            </g>
        </g>
    </g>
</svg>