<?xml version="1.0" encoding="UTF-8"?>
<svg width="16px" height="16px" viewBox="0 0 16 16" version="1.1" xmlns="http://www.w3.org/2000/svg" xmlns:xlink="http://www.w3.org/1999/xlink">
    <title>单项选择</title>
    <g id="表单管理" stroke="none" stroke-width="1" fill="none" fill-rule="evenodd">
        <g id="表单详情-固定表单" transform="translate(-170.000000, -382.000000)" fill="#4A4C51" fill-rule="nonzero">
            <g id="编组-11备份-5" transform="translate(152.000000, 372.000000)">
                <g id="单选" transform="translate(18.000000, 10.000000)">
                    <path d="M4,8 C4,10.209139 5.790861,12 8,12 C10.209139,12 12,10.209139 12,8 C12,5.790861 10.209139,4 8,4 C5.790861,4 4,5.790861 4,8 Z" id="路径"></path>
                    <path d="M8,16 C3.6,16 0,12.4 0,8 C0,3.6 3.6,0 8,0 C12.4,0 16,3.6 16,8 C16,12.4 12.4,16 8,16 Z M8,1 C4.15,1 1,4.15 1,8 C1,11.85 4.15,15 8,15 C11.85,15 15,11.85 15,8 C15,4.15 11.85,1 8,1 Z" id="形状"></path>
                </g>
            </g>
        </g>
    </g>
</svg>