<?xml version="1.0" encoding="UTF-8"?>
<svg width="16px" height="16px" viewBox="0 0 16 16" version="1.1" xmlns="http://www.w3.org/2000/svg" xmlns:xlink="http://www.w3.org/1999/xlink">
    <title>单行文本</title>
    <g id="表单管理" stroke="none" stroke-width="1" fill="none" fill-rule="evenodd">
        <g id="表单详情-固定表单" transform="translate(-34.000000, -176.000000)" fill="#4A4C51" fill-rule="nonzero">
            <g id="编组-10" transform="translate(16.000000, 166.000000)">
                <g id="单行文本" transform="translate(18.000000, 10.000000)">
                    <path d="M13.9230769,0.923076923 C14.560021,0.923818727 15.0761813,1.43997896 15.0769231,2.07692308 L15.0769231,13.9230769 C15.0761813,14.560021 14.560021,15.0761813 13.9230769,15.0769231 L2.07692308,15.0769231 C1.43997896,15.0761813 0.923818727,14.560021 0.923076923,13.9230769 L0.923076923,2.07692308 C0.923818727,1.43997896 1.43997896,0.923818727 2.07692308,0.923076923 L13.9230769,0.923076923 M13.9230769,0 L2.07692308,0 C0.929870135,0 0,0.929870135 0,2.07692308 L0,13.9230769 C0,15.0701299 0.929870135,16 2.07692308,16 L13.9230769,16 C15.0701299,16 16,15.0701299 16,13.9230769 L16,2.07692308 C16,0.929870135 15.0701299,0 13.9230769,0 Z" id="形状"></path>
                    <path d="M4,11.4635309 L12,11.4635309 L12,12.4635309 L4,12.4635309 L4,11.4635309 Z M4.5,3.63636364 L11.5,3.63636364 L11.5,4.63636364 L4.5,4.63636364 L4.5,3.63636364 Z" id="形状"></path>
                    <polygon id="路径" points="7.5 3.63636364 8.5 3.63636364 8.5 10.1818182 7.5 10.1818182"></polygon>
                </g>
            </g>
        </g>
    </g>
</svg>