<?xml version="1.0" encoding="UTF-8"?>
<svg width="16px" height="16px" viewBox="0 0 16 16" version="1.1" xmlns="http://www.w3.org/2000/svg" xmlns:xlink="http://www.w3.org/1999/xlink">
    <title>地址</title>
    <g id="表单管理" stroke="none" stroke-width="1" fill="none" fill-rule="evenodd">
        <g id="表单详情-固定表单" transform="translate(-34.000000, -486.000000)" fill="#4A4C51" fill-rule="nonzero">
            <g id="编组-10备份-3" transform="translate(16.000000, 476.000000)">
                <g id="地址-2" transform="translate(18.000000, 10.000000)">
                    <g id="地址" transform="translate(0.238787, 1.000000)">
                        <path d="M3.5424626,7.975 L3.5424626,8.9140625 L2.41785153,8.9140625 L1.17906822,13.7609375 L14.2869396,13.7609375 L12.8285468,8.9140625 L11.8752751,8.9140625 L11.8752751,7.975 L13.5266487,7.975 L15.5526458,14.7015625 L-0.0321997174,14.7015625 L1.68840239,7.975 L3.5424626,7.975 Z" id="路径" stroke="#4A4C51" stroke-width="0.05"></path>
                        <path d="M7.7487126,-0.025 C8.98289638,-0.025 10.1019979,0.476188657 10.9125702,1.28533833 C11.723221,2.09456651 12.2252751,3.21180567 12.2252751,4.44375 C12.2252751,7.53764831 8.77716779,11.188558 8.15826644,11.8177313 C7.30891226,11.4587706 5.81143327,10.0834162 4.69560333,8.38858886 C3.88229032,7.15325262 3.2721501,5.74870268 3.2721501,4.44375 C3.2721501,3.21180567 3.77420417,2.09456651 4.58485504,1.28533833 C5.39542727,0.476188657 6.51452882,-0.025 7.7487126,-0.025 Z M7.7487126,0.915625 C6.77361671,0.915625 5.88966792,1.31123444 5.24947204,1.95002576 C4.60923418,2.58885897 4.2127751,3.47091484 4.2127751,4.44375 C4.2127751,6.86872636 6.80523634,9.88459583 7.73927998,10.8928665 C8.67644435,9.88490005 11.2830887,6.8657746 11.2830887,4.44375 C11.2838637,3.47118221 10.8876334,2.58936215 10.2477254,1.950578 C9.60748682,1.31146387 8.72331198,0.915625 7.7487126,0.915625 Z" id="形状" stroke="#4A4C51" stroke-width="0.05"></path>
                        <path d="M7.8159001,3.18125 C7.0799626,3.18125 6.4799626,3.7796875 6.4799626,4.5171875 C6.4799626,5.2546875 7.0784001,5.853125 7.8159001,5.853125 C8.5534001,5.853125 9.1518376,5.253125 9.1518376,4.515625 C9.1518376,3.778125 8.5518376,3.18125 7.8159001,3.18125 Z" id="形状"></path>
                    </g>
                </g>
            </g>
        </g>
    </g>
</svg>