<?xml version="1.0" encoding="UTF-8"?>
<svg width="14px" height="14px" viewBox="0 0 14 14" version="1.1" xmlns="http://www.w3.org/2000/svg" xmlns:xlink="http://www.w3.org/1999/xlink">
    <title>复制</title>
    <g id="表单管理" stroke="none" stroke-width="1" fill="none" fill-rule="evenodd">
        <g id="合集详情" transform="translate(-1201.000000, -224.000000)" fill="#FFFFFF" fill-rule="nonzero">
            <g id="编组-10备份-4" transform="translate(1192.000000, 215.000000)">
                <g id="文件复制2" transform="translate(9.000000, 9.000000)">
                    <path d="M3.85185186,2.79999322 L3.85185186,0.69999831 C3.85185186,0.313399925 4.17105624,0 4.56481481,0 L13.1203704,0 C13.5141289,0 13.8333333,0.313399918 13.8333333,0.69999831 L13.8333333,10.4999746 C13.8333333,10.886573 13.5141289,11.1999729 13.1203704,11.1999729 L10.9814815,11.1999729 L10.9814815,13.2999678 C10.9814815,13.6863669 10.6606481,13.9999833 10.2635278,13.9999833 L1.7179537,13.9999833 C1.52800093,14.0012716 1.34537125,13.9280987 1.21058341,13.7966818 C1.07579557,13.6652649 1,13.486471 1,13.2999678 L1.00213889,3.5 C1.00213889,3.11359247 1.32297222,2.79999322 1.72009259,2.79999322 L3.85185186,2.79999322 Z M5.27777778,2.79999322 L10.9814815,2.79999322 L10.9814815,9.79997627 L12.4074074,9.79997627 L12.4074074,1.39999662 L5.27777778,1.39999662 L5.27777778,2.79999322 Z M3.85185186,6.29998474 L3.85185186,7.69998136 L8.12962964,7.69998136 L8.12962964,6.29998474 L3.85185186,6.29998474 L3.85185186,6.29998474 Z M3.85185186,9.09997796 L3.85185186,10.4999746 L8.12962964,10.4999746 L8.12962964,9.09997796 L3.85185186,9.09997796 Z" id="复制"></path>
                </g>
            </g>
        </g>
    </g>
</svg>