<?xml version="1.0" encoding="UTF-8"?>
<svg width="14px" height="14px" viewBox="0 0 14 14" version="1.1" xmlns="http://www.w3.org/2000/svg" xmlns:xlink="http://www.w3.org/1999/xlink">
    <title>导入</title>
    <g id="表单管理" stroke="none" stroke-width="1" fill="none" fill-rule="evenodd">
        <g id="任务列表" transform="translate(-1224.000000, -186.000000)" fill="#FFFFFF" fill-rule="nonzero">
            <g id="编组-10备份-4" transform="translate(1208.000000, 177.000000)">
                <g id="文件复制2" transform="translate(16.000000, 9.000000)">
                    <g id="通用导入" transform="translate(0.000000, 1.000000)">
                        <path d="M13.4129102,2.28199034 C13.7456302,2.59970866 13.940969,2.9990033 14,3.47772752 L14,10.2096144 C13.9806808,10.7377137 13.7992947,11.1659894 13.4569151,11.4933681 C13.1145354,11.8207468 12.699172,11.9892663 12.2097516,12 L1.79024839,12 C1.26218951,11.9806793 0.833946642,11.7992793 0.50659307,11.4568734 C0.179239497,11.1144675 0.00965961362,10.6990723 0,10.2096144 L0,1.79038565 C0.0193192272,1.26228628 0.200705305,0.83401058 0.543084943,0.50663191 C0.885464581,0.179253239 1.30082797,0.0107337269 1.79024839,0 L5.26770929,0 C5.5124195,0.00966035421 5.75390984,0.076209461 5.99432689,0.198573948 C6.23367065,0.320938434 6.42686293,0.475504102 6.57390371,0.661197577 L7.14596749,1.32132178 C7.23397731,1.46837384 7.33379331,1.58322472 7.44648881,1.66587442 C7.5591843,1.74959749 7.70837167,1.79038565 7.8940509,1.79038565 L12.1206685,1.79038565 C12.6498007,1.800046 13.0801901,1.96427202 13.4129102,2.28199034 Z M8.51808992,7.16579055 L7.73562656,7.16579055 L7.73562656,4.99646858 C7.73562656,4.73240414 7.60323257,4.6 7.33918837,4.6 L6.56565045,4.6 C6.4637517,4.60669459 6.37375354,4.64909367 6.29639975,4.72719724 C6.21830217,4.8053008 6.17590634,4.89530587 6.16921226,4.99646858 L6.16921226,7.16579055 L5.32501463,7.16579055 C5.25733006,7.16579055 5.19410821,7.18141126 5.13683665,7.21190884 C5.07882131,7.24240643 5.03345033,7.2915001 4.99923616,7.35918985 C4.96502198,7.42687961 4.95163382,7.49308168 4.9583279,7.55779607 C4.96502198,7.62251045 4.99923616,7.6849933 5.06022665,7.74598847 L6.68763143,9.44418316 C6.72184561,9.47839996 6.75903493,9.50666601 6.7991994,9.530469 C6.84010765,9.55427199 6.89068513,9.56989271 6.95167562,9.5765873 C7.01266611,9.60410951 7.06324359,9.60708488 7.10415185,9.58700111 C7.1450601,9.56691733 7.18224943,9.53939512 7.21571982,9.50592217 L8.8431246,7.74673231 C8.93832927,7.63738732 8.95692393,7.50795855 8.89965237,7.35918985 C8.84163703,7.21042116 8.71519333,7.14570677 8.51808992,7.16579055 Z" id="形状"></path>
                    </g>
                </g>
            </g>
        </g>
    </g>
</svg>