<?xml version="1.0" encoding="UTF-8"?>
<svg width="30px" height="30px" viewBox="0 0 30 30" version="1.1" xmlns="http://www.w3.org/2000/svg" xmlns:xlink="http://www.w3.org/1999/xlink">
    <title>数据采集</title>
    <defs>
        <linearGradient x1="50%" y1="17.0809659%" x2="50%" y2="100%" id="linearGradient-1">
            <stop stop-color="#76A8F4" offset="0%"></stop>
            <stop stop-color="#2F68BD" offset="100%"></stop>
        </linearGradient>
    </defs>
    <g id="表单管理" stroke="none" stroke-width="1" fill="none" fill-rule="evenodd">
        <g id="我的待办" transform="translate(-42.000000, -127.000000)">
            <g id="编组-12" transform="translate(22.000000, 112.000000)">
                <g id="编组-2" transform="translate(20.000000, 15.000000)">
                    <rect id="矩形" fill="url(#linearGradient-1)" x="0" y="0" width="30" height="30" rx="6"></rect>
                    <g id="数据采集备份" transform="translate(7.000000, 7.000000)" fill="#FFFFFF">
                        <path d="M0.616830842,4.30901545 C0.276476765,4.30901545 0.000441444976,4.58469246 0,4.92504625 L0,15.3855693 C0.00132191111,15.7252979 0.277099683,16 0.616830842,16 L15.3831692,16 C15.7229003,16 15.9986781,15.7252979 16,15.3855693 L16,4.92504625 C15.9986816,4.58505736 15.7231595,4.30989256 15.3831692,4.30901545 L0.616830842,4.30901545 Z M3.07695385,1.23206161 L12.9238462,1.23206161 C13.0057499,1.23142752 13.0840469,1.19828201 13.1415115,1.13991723 C13.198976,1.08155245 13.2309005,1.00274973 13.2302992,0.920846044 L13.2302992,0.311215563 C13.2315478,0.229120669 13.1998335,0.149943847 13.1422295,0.0914374132 C13.0846255,0.0329309791 13.0059512,0 12.9238462,0 L3.07695385,0 C2.90658349,0.00175870766 2.76964894,0.140838451 2.77050087,0.311215563 L2.77050087,0.920046004 C2.76925229,1.0021409 2.80096652,1.08131772 2.85857054,1.13982415 C2.91617456,1.19833059 2.99484888,1.23127164 3.07695385,1.23126157 L3.07695385,1.23206161 Z M1.54167708,3.38496925 C1.45935659,3.38497174 1.38044224,3.35210666 1.32245862,3.29367239 C1.264475,3.23523812 1.23222185,3.1560717 1.2328523,3.07375369 L1.2328523,2.46652333 C1.23241832,2.29539648 1.37055194,2.15618929 1.54167708,2.15530346 L14.4615231,2.15530346 C14.5439765,2.15487131 14.6231445,2.18759781 14.6812226,2.24612729 C14.7393007,2.30465677 14.7714133,2.38407571 14.7703647,2.46652333 L14.7703647,3.07535377 C14.7707818,3.24648061 14.6326482,3.3856878 14.4615231,3.38656933 L1.540077,3.38656933 L1.54167708,3.38496925 Z M11.9893995,10.1781089 C12.0850918,10.269872 12.1593901,10.3815925 12.2070104,10.5053253 C12.2605113,10.6318658 12.2877304,10.7679614 12.2870281,10.9053453 C12.2882667,11.1769655 12.1780926,11.4372194 11.9821991,11.6253813 C11.7832617,11.8165383 11.5172394,11.9219705 11.2413621,11.918996 C10.9679327,11.9190473 10.7049613,11.813916 10.5069253,11.6253813 C10.2329893,11.3575133 10.1363347,10.9565986 10.2581129,10.5933297 C10.2901714,10.497836 10.3345478,10.4069315 10.3901195,10.3229161 L9.67648382,9.08125406 L8.43162158,11.7941897 C8.49527536,11.8836231 8.5464171,11.9813308 8.58362918,12.0846042 C8.71404968,12.4510096 8.61833555,12.8598277 8.33881694,13.1302565 C7.92702178,13.5245435 7.27773846,13.5245435 6.8659433,13.1302565 C6.67412134,12.9397208 6.56615002,12.6805896 6.5659283,12.4102205 C6.56605885,12.3500221 6.57006736,12.2898946 6.5779289,12.2302115 C6.58545486,12.1745914 6.60193553,12.1205564 6.62673134,12.0702035 L5.18665933,10.3757188 L5.11305565,10.3757188 C4.81192301,10.3990455 4.51503618,10.2934922 4.29621481,10.0853043 C4.10285101,9.89758196 3.99373332,9.6395666 3.99373332,9.3700685 C3.99373332,9.10057041 4.10285101,8.84255505 4.29621481,8.65483274 C4.71091675,8.26317675 5.35918676,8.26317675 5.77388869,8.65483274 C6.04469859,8.91536911 6.14505081,9.30655693 6.03310166,9.66528327 C6.00499668,9.75756977 5.96548973,9.8459901 5.91549577,9.92849643 L7.17635882,11.4813741 C7.24228433,11.4521011 7.31018892,11.4275058 7.37956898,11.4077704 C7.49072528,11.3731817 7.60889391,11.3676727 7.72278614,11.3917696 L8.98764938,8.62843142 C8.7660175,8.43877798 8.63951526,8.16088299 8.6420321,7.86919346 C8.64240889,7.59543537 8.75280839,7.33331822 8.94840532,7.14178369 C9.14400224,6.95024917 9.40837839,6.84537447 9.6820841,6.85074254 C9.95823511,6.84793816 10.2243825,6.95399472 10.4229211,7.1459573 C10.6261243,7.34220155 10.7367676,7.61528729 10.727468,7.89762902 C10.7181684,8.17997076 10.589795,8.44518392 10.3741187,8.62763138 L11.0717536,9.87249363 L11.2477624,9.87249363 C11.5237368,9.87143639 11.7893428,9.97756404 11.9885994,10.1685084 L11.9893995,10.1781089 Z" id="形状"></path>
                    </g>
                </g>
            </g>
        </g>
    </g>
</svg>