<?xml version="1.0" encoding="UTF-8"?>
<svg width="16px" height="16px" viewBox="0 0 16 16" version="1.1" xmlns="http://www.w3.org/2000/svg" xmlns:xlink="http://www.w3.org/1999/xlink">
    <title>日期选择</title>
    <g id="表单管理" stroke="none" stroke-width="1" fill="none" fill-rule="evenodd">
        <g id="表单详情-固定表单" transform="translate(-170.000000, -433.000000)" fill="#4A4C51" fill-rule="nonzero" stroke="#4A4C51" stroke-width="0.12">
            <g id="编组-11备份-4" transform="translate(152.000000, 424.000000)">
                <g id="日期-2" transform="translate(18.000000, 9.000000)">
                    <g id="日期" transform="translate(0.500000, 0.700000)">
                        <g id="形状-3" transform="translate(0.000000, 1.454545)">
                            <path d="M13.5454546,-0.06 C13.9636847,-0.06 14.3423211,0.109521274 14.6163999,0.383600092 C14.8562189,0.623419058 15.015986,0.943289893 15.0521806,1.29969198 L15.06,1.45454545 L15.06,11.6363636 C15.06,12.0380461 14.9004323,12.4232766 14.6163999,12.707309 C14.3678716,12.9558373 14.0418634,13.1090724 13.6951488,13.1434979 L13.5454546,13.1509091 L1.45454545,13.1509091 C1.05286302,13.1509091 0.667632455,12.9913414 0.383600086,12.707309 C0.135071763,12.4587807 -0.0181633107,12.1327725 -0.052588824,11.7860578 L-0.06,11.6363636 L-0.06,1.45454545 C-0.06,1.03631527 0.109521274,0.65767891 0.383600092,0.383600092 C0.623419058,0.143781126 0.943289893,-0.0159859699 1.29969198,-0.0521805726 L1.45454545,-0.06 L13.5454546,-0.06 Z M13.5454546,0.787272716 L1.45454545,0.787272716 L1.34631035,0.79600619 C1.20539852,0.818990157 1.07931447,0.886110284 0.982712375,0.982712375 C0.861959761,1.10346499 0.787272716,1.27028317 0.787272716,1.45454545 L0.787272716,1.45454545 L0.787272716,11.6363636 L0.79600619,11.7445987 C0.818990157,11.8855106 0.886110284,12.0115946 0.982712375,12.1081967 C1.10346499,12.2289493 1.27028317,12.3036364 1.45454545,12.3036364 L1.45454545,12.3036364 L13.5454546,12.3036364 L13.6536897,12.2949029 C13.7946015,12.2719189 13.9206855,12.2047988 14.0172876,12.1081967 C14.1380402,11.9874441 14.2127273,11.8206259 14.2127273,11.6363636 L14.2127273,11.6363636 L14.2127273,1.45454545 L14.2039938,1.34631035 C14.1810098,1.20539852 14.1138897,1.07931447 14.0172876,0.982712375 C13.896535,0.861959761 13.7297168,0.787272716 13.5454546,0.787272716 L13.5454546,0.787272716 Z" id="形状"></path>
                        </g>
                        <path d="" id="路径"></path>
                        <path d="M4.64029732,7.93873422 C4.91273654,8.40958113 4.91513392,8.61531008 4.83597033,8.70471412 L4.83597033,8.70471412 L2.50970267,8.78853853 C2.23726345,8.31769162 2.23486607,8.11196267 2.31402967,8.02255863 L2.31402967,8.02255863 Z" id="路径"></path>
                        <path d="M8.54029732,7.93873422 C8.81273654,8.40958113 8.81513392,8.61531008 8.73597033,8.70471412 L8.73597033,8.70471412 L6.40970267,8.78853853 C6.13726345,8.31769162 6.13486607,8.11196267 6.21402967,8.02255863 L6.21402967,8.02255863 Z" id="路径"></path>
                        <path d="M12.5084791,7.93873422 C12.7809184,8.40958113 12.7833157,8.61531008 12.7041521,8.70471412 L12.7041521,8.70471412 L10.3778845,8.78853853 C10.1054453,8.31769162 10.1030479,8.11196267 10.1822115,8.02255863 L10.1822115,8.02255863 Z" id="路径"></path>
                        <path d="M4.64029732,10.8478251 C4.91273654,11.318672 4.91513392,11.524401 4.83597033,11.613805 L4.83597033,11.613805 L2.50970267,11.6976294 C2.23726345,11.2267825 2.23486607,11.0210536 2.31402967,10.9316495 L2.31402967,10.9316495 Z" id="路径"></path>
                        <path d="M8.54029732,10.8478251 C8.81273654,11.318672 8.81513392,11.524401 8.73597033,11.613805 L8.73597033,11.613805 L6.40970267,11.6976294 C6.13726345,11.2267825 6.13486607,11.0210536 6.21402967,10.9316495 L6.21402967,10.9316495 Z" id="路径"></path>
                        <path d="M12.5084791,10.8478251 C12.7809184,11.318672 12.7833157,11.524401 12.7041522,11.613805 L12.7041522,11.613805 L10.3778845,11.6976294 C10.1054453,11.2267825 10.1030479,11.0210536 10.1822115,10.9316495 L10.1822115,10.9316495 Z" id="路径"></path>
                        <path d="M3.05214155,0.0576536668 C3.46492436,-0.0679053853 3.5798277,-0.0218240203 3.65790588,0.0404408601 C3.74563727,0.110403867 3.78727273,0.216740113 3.78727273,0.363636375 L3.78727273,0.363636375 L3.78727273,3.27272728 C3.78727273,3.39513824 3.75830924,3.48964342 3.70503159,3.55814326 C3.64992611,3.62899317 3.5681803,3.67424575 3.45285477,3.69054894 L3.45285477,3.69054894 L3.36363636,3.69636365 C3.22242424,3.69636365 3.11851683,3.65791512 3.04848268,3.58788096 C2.97844853,3.51784681 2.94,3.4139394 2.94,3.27272728 L2.94,3.27272728 L2.94,0.363636375 C3.02627988,0.0730277194 3.03049786,0.0679336807 3.03495945,0.0629277625 C3.04061978,0.0611742925 3.04634686,0.0594162755 3.05214155,0.0576536668 Z" id="路径"></path>
                        <path d="M11.0521415,0.0576536667 C11.4649244,-0.0679053856 11.5798277,-0.0218240202 11.6579059,0.0404408589 C11.7456373,0.110403866 11.7872727,0.216740112 11.7872727,0.363636375 L11.7872727,0.363636375 L11.7872727,3.27272728 C11.7872727,3.39513824 11.7583092,3.48964342 11.7050316,3.55814326 C11.6499261,3.62899317 11.5681803,3.67424574 11.4528548,3.69054894 L11.4528548,3.69054894 L11.3636364,3.69636365 C11.2224242,3.69636365 11.1185168,3.65791511 11.0484827,3.58788095 C10.9784485,3.5178468 10.94,3.41393939 10.94,3.27272728 L10.94,3.27272728 L10.94,0.363636375 C11.0262799,0.0730277183 11.0304979,0.0679336796 11.0349595,0.0629277624 C11.0406198,0.0611742924 11.0463469,0.0594162754 11.0521415,0.0576536667 Z" id="路径"></path>
                    </g>
                </g>
            </g>
        </g>
    </g>
</svg>