<?xml version="1.0" encoding="UTF-8"?>
<svg width="16px" height="16px" viewBox="0 0 16 16" version="1.1" xmlns="http://www.w3.org/2000/svg" xmlns:xlink="http://www.w3.org/1999/xlink">
    <title>系统管理-blue</title>
    <g id="表单管理" stroke="none" stroke-width="1" fill="none" fill-rule="evenodd">
        <g id="切图" transform="translate(-952.000000, -89.000000)" fill="#2F68BD" fill-rule="nonzero">
            <g id="编组-4" transform="translate(487.000000, 7.000000)">
                <g id="编组-3备份-3" transform="translate(453.000000, 71.000000)">
                    <g id="系统管理-blue" transform="translate(12.000000, 11.000000)">
                        <path d="M15.2629776,6.41492942 L13.7010571,6.41492942 C13.5736843,5.95220232 13.3896081,5.50699198 13.1530148,5.08942302 L14.2572255,3.98540128 C14.5448139,3.6970674 14.5448139,3.23037605 14.2572255,2.94204217 L13.0572019,1.74201854 C12.768868,1.45443018 12.3021767,1.45443018 12.0138428,1.74201854 L10.9088762,2.84604028 C10.4914078,2.60909639 10.0462632,2.42464037 9.58355873,2.29686412 L9.58355873,0.737022379 C9.5821075,0.330578794 9.25297993,0.00145122646 8.84653635,0 L7.15043997,0 C6.74399639,0.00145122646 6.41486882,0.330578794 6.41341759,0.737022379 L6.41341759,2.29818698 C5.95068984,2.42598103 5.50553985,2.61050277 5.08810016,2.84755212 L3.98351149,1.74371936 C3.69513467,1.45623487 3.22852918,1.45623487 2.94015236,1.74371936 L1.74012875,2.94374299 C1.45254039,3.23207687 1.45254039,3.69876822 1.74012875,3.98710211 L2.84433945,5.09131281 C2.60732142,5.50876782 2.42280132,5.95391383 2.29497431,6.41663025 L0.737022379,6.41663025 C0.330578794,6.41808147 0.00145122646,6.74720904 0,7.15365262 L0,8.84993799 C0.00145122646,9.25638158 0.330578794,9.58550914 0.737022379,9.58696037 L2.29818698,9.58696037 C2.42601399,10.0496768 2.61053409,10.4948228 2.84755212,10.9122778 L1.74371936,12.0168665 C1.45623487,12.3052433 1.45623487,12.7718488 1.74371936,13.0602256 L2.94374299,14.2602492 C3.23211981,14.5477337 3.69872528,14.5477337 3.98710211,14.2602492 L5.09131281,13.1560385 C5.50876782,13.3930565 5.95391383,13.5775766 6.41663025,13.7054037 L6.41663025,15.2629776 C6.41808147,15.6694212 6.74720904,15.9985488 7.15365262,16 L8.84993799,16 C9.25638158,15.9985488 9.58550914,15.6694212 9.58696037,15.2629776 L9.58696037,13.7010571 C10.0497457,13.5736788 10.4950179,13.3896033 10.9126558,13.1530148 L12.0168665,14.2572255 C12.3052004,14.5448139 12.7718917,14.5448139 13.0602256,14.2572255 L14.2602492,13.0572019 C14.5477337,12.7688251 14.5477337,12.3022196 14.2602492,12.0138428 L13.1560385,10.9096321 C13.3931122,10.4922043 13.5776353,10.0470512 13.7054037,9.58431465 L15.2629776,9.58431465 C15.6694212,9.58286342 15.9985488,9.25373586 16,8.84729227 L16,7.15043997 C15.9980293,6.74445822 15.6689626,6.41606651 15.2629776,6.41492942 L15.2629776,6.41492942 Z M8.00009449,11.2443158 C6.68781862,11.2443923 5.50471892,10.4539451 5.00249738,9.24157489 C4.50027583,8.02920469 4.77784179,6.63368014 5.70576097,5.70576097 C6.63368014,4.77784179 8.02920469,4.50027583 9.24157489,5.00249738 C10.4539451,5.50471892 11.2443923,6.68781862 11.2443158,8.00009449 C11.2442115,9.79178523 9.79178523,11.2442115 8.00009449,11.2443158 L8.00009449,11.2443158 Z" id="形状"></path>
                        <path d="M6.000117,7.97841406 C5.99234957,8.69804718 6.37181722,9.36636439 6.9937753,9.72844188 C7.61573338,10.0905194 8.38426662,10.0905194 9.0062247,9.72844188 C9.62818278,9.36636439 10.0076504,8.69804718 9.999883,7.97841406 C9.9880523,6.88232901 9.09614862,6 8,6 C6.90385138,6 6.0119477,6.88232901 6.000117,7.97841406 L6.000117,7.97841406 Z" id="路径"></path>
                    </g>
                </g>
            </g>
        </g>
    </g>
</svg>