<?xml version="1.0" encoding="UTF-8"?>
<svg width="14px" height="14px" viewBox="0 0 14 14" version="1.1" xmlns="http://www.w3.org/2000/svg" xmlns:xlink="http://www.w3.org/1999/xlink">
    <title>编辑</title>
    <g id="表单管理" stroke="none" stroke-width="1" fill="none" fill-rule="evenodd">
        <g id="任务概览" transform="translate(-1240.000000, -130.000000)" fill="#FFFFFF" fill-rule="nonzero">
            <g id="编组-10" transform="translate(1224.000000, 121.000000)">
                <g id="编辑-(1)" transform="translate(16.000000, 9.000000)">
                    <path d="M7.7352735,0.000883629958 L7.7352735,1.212719 L1.11492742,1.212719 L1.11492742,12.7881646 L12.8850726,12.7881646 L12.8850726,7.96915563 L14,7.96915563 L14,12.9901372 C14,13.5422797 13.5923082,13.9909449 13.086255,14 L0.92910618,14 C0.421101891,14 0.00833098541,13.5568554 0,13.0068336 L0,1.01074644 C0,0.458587117 0.407691792,0.00993873314 0.913744958,0.000883629958 L7.7352735,0.000883629958 Z M11.0582669,0.18240647 C11.29135,-0.0608021566 11.6692349,-0.0608021566 11.9023018,0.18240647 L13.7801286,2.14177595 C14.0131956,2.38498458 14.0131956,2.77926868 13.7801286,3.02247731 L9.09180401,7.91443789 C8.98515044,8.02572538 8.84206969,8.09074904 8.69133666,8.096432 L6.7431494,8.16988269 C6.41375223,8.182304 6.13706892,7.91373099 6.12516475,7.57002418 C6.12489592,7.56139278 6.12479136,7.55275713 6.12479136,7.5441212 L6.12516475,7.52505163 L6.19555745,5.49223145 C6.20100381,5.3349503 6.26332033,5.18565386 6.36997455,5.07436706 L11.0582669,0.18240647 Z M11.4802844,1.45584347 L7.34818141,5.76745273 L7.30769432,6.93596499 L8.42755761,6.89373589 L12.5596606,2.58212663 L11.4802844,1.45584347 Z" id="形状"></path>
                    <polygon id="路径" points="11 10 11 11 3 11 3 10"></polygon>
                </g>
            </g>
        </g>
    </g>
</svg>