<?xml version="1.0" encoding="UTF-8"?>
<svg width="16px" height="16px" viewBox="0 0 16 16" version="1.1" xmlns="http://www.w3.org/2000/svg" xmlns:xlink="http://www.w3.org/1999/xlink">
    <title>表单管理-blue</title>
    <g id="表单管理" stroke="none" stroke-width="1" fill="none" fill-rule="evenodd">
        <g id="切图" transform="translate(-800.000000, -19.000000)" fill="#2F68BD" fill-rule="nonzero">
            <g id="编组-4" transform="translate(487.000000, 7.000000)">
                <g id="编组-3备份" transform="translate(301.000000, 1.000000)">
                    <g id="上级任务管理" transform="translate(12.000000, 11.000000)">
                        <g transform="translate(1.000000, 0.000000)" id="形状">
                            <path d="M13.125,0 C13.6082492,0 14,0.377023367 14,0.842105251 L14,15.1578947 C14,15.6229766 13.6082492,16 13.125,16 L0.874999987,16 C0.391750843,16 0,15.6229766 0,15.1578947 L0,0.842105251 C0,0.377023367 0.391750843,0 0.874999987,0 L13.125,0 Z M3.82991268,3.00049972 C2.87241552,3.00049972 2.08433636,3.80971084 2.08433636,4.79186196 C2.08433636,5.49379481 2.45267771,6.09399828 3.00471384,6.38253985 L3.12559071,6.43987823 L3.12559071,9.56019638 C2.48234143,9.87045501 2.07797749,10.5104508 2.08433636,11.2082127 C2.08433636,12.1903638 2.87241552,12.9995749 3.82991268,12.9995749 C4.78645804,12.9995749 5.5745372,12.1903638 5.5745372,11.2082127 C5.5745372,10.5062798 5.20714765,9.90607633 4.65415972,9.61753476 L4.53328283,9.56019638 L4.53328283,6.58507384 C4.53328283,6.52681063 4.50472924,6.46947225 4.53328283,6.44080305 C5.17715437,6.13025253 5.58162859,5.48936378 5.5745372,4.79093716 C5.5745372,3.80878604 4.78645804,2.9995749 3.82991268,2.9995749 L3.82991268,3.00049972 Z M3.829875,10.5 C4.192125,10.5 4.477375,10.7924696 4.477375,11.1648583 C4.477375,11.5363968 4.192125,11.8288664 3.829875,11.8288664 C3.467625,11.8288664 3.18237499,11.5363968 3.18237499,11.1648583 C3.18237499,10.7924696 3.46762498,10.5008502 3.829875,10.5008502 L3.829875,10.5 Z M11.15275,10.2844939 L7.29750001,10.2844939 C7.13173504,10.2905519 6.97448118,10.3573817 6.85737499,10.4715385 C6.74046066,10.5940402 6.67573024,10.7550781 6.67624689,10.9221457 C6.67624689,11.2639271 6.91512499,11.5376923 7.23450001,11.5810526 L7.322875,11.5870041 L11.15275,11.5870041 C11.3183937,11.5811735 11.475631,11.5146544 11.592875,11.4008097 C11.7274434,11.2876974 11.8031413,11.1222042 11.799375,10.9493522 C11.799375,10.5769636 11.515,10.2853441 11.15275,10.2853441 L11.15275,10.2844939 Z M11.15275,7.3359919 L8.59075,7.3359919 C8.42541213,7.34203457 8.26852507,7.40853766 8.15149999,7.52218623 C8.03458566,7.64468794 7.96985524,7.8057259 7.97037189,7.97279353 C7.97037189,8.31457491 8.20924999,8.58834009 8.52775,8.6317004 L8.617,8.63765182 L11.15275,8.63765182 C11.3183937,8.63182126 11.475631,8.56530219 11.592875,8.45145749 C11.7274434,8.33834521 11.8031413,8.17285198 11.799375,8 C11.799375,7.62761134 11.515,7.3359919 11.15275,7.3359919 L11.15275,7.3359919 Z M3.829,4.2 C4.192125,4.2 4.47649999,4.49246963 4.47649999,4.86485829 C4.47649999,5.23639675 4.19212498,5.52801619 3.829,5.52801619 C3.467625,5.52801619 3.18237499,5.23639675 3.18237499,4.86485829 C3.18237499,4.49246963 3.46762498,4.2 3.829875,4.2 L3.829,4.2 Z M11.15275,4.41214575 L7.29750001,4.41214575 C7.13185634,4.41797631 6.97461898,4.48449538 6.85737499,4.59834008 C6.740254,4.72105662 6.67550824,4.88243667 6.67624369,5.04979758 C6.67624369,5.39072874 6.91512499,5.66534414 7.23450001,5.70785426 L7.322875,5.71465587 L11.15275,5.71465587 C11.318515,5.70859789 11.4757688,5.64176806 11.592875,5.52761133 C11.7180338,5.4082929 11.7918496,5.24721815 11.799375,5.07700405 C11.799375,4.70461538 11.515,4.41214575 11.15275,4.41214575 L11.15275,4.41214575 Z"></path>
                        </g>
                    </g>
                </g>
            </g>
        </g>
    </g>
</svg>