<?xml version="1.0" encoding="UTF-8"?>
<svg width="20px" height="20px" viewBox="0 0 20 20" version="1.1" xmlns="http://www.w3.org/2000/svg" xmlns:xlink="http://www.w3.org/1999/xlink">
    <title>退回修改</title>
    <g id="表单管理" stroke="none" stroke-width="1" fill="none" fill-rule="evenodd">
        <g id="表单详情-退回修改" transform="translate(-334.000000, -125.000000)" fill="#E23322" fill-rule="nonzero">
            <g id="编组-27" transform="translate(310.000000, 117.000000)">
                <g id="已驳回" transform="translate(24.000000, 8.000000)">
                    <path d="M16.6666667,8.54333334 C13.6798005,7.77049548 10.5528476,9.1480641 9.10719328,11.873634 C7.66153896,14.5992039 8.27489739,17.9606502 10.59,20 L1.66666666,20 C0.746192081,20 0,19.2538079 0,18.3333333 L0,1.66666666 C0,0.746192081 0.746192081,0 1.66666666,0 L15,0 C15.9204746,0 16.6666667,0.746192081 16.6666667,1.66666666 L16.6666667,8.54333334 Z M2.5,4.16666666 L2.5,5.83333334 L14.1666667,5.83333334 L14.1666667,4.16666666 L2.5,4.16666666 L2.5,4.16666666 Z M2.5,9.16666666 L2.5,10.8333333 L8.33333334,10.8333333 L8.33333334,9.16666666 L2.5,9.16666666 L2.5,9.16666666 Z M2.5,14.1666667 L2.5,15.8333333 L6.875,15.8333333 L6.875,14.1666667 L2.5,14.1666667 Z M15,10 C17.7614237,10 20,12.2385763 20,15 C20,17.7614237 17.7614237,20 15,20 C12.2385763,20 10,17.7614237 10,15 C10,12.2385763 12.2385763,10 15,10 Z M17.8933333,18.3083333 C18.3714854,17.2127514 18.2647176,15.9498922 17.6094162,14.9501376 C16.9541148,13.9503829 15.8387108,13.3486466 14.6433333,13.35 L14.6433333,11.5733333 L11.81,14.5283333 L14.64,17.425 L14.645,15.7083333 C16.2033333,15.7083333 17.6116667,16.83 17.8916667,18.3083333 L17.8933333,18.3083333 Z" id="形状"></path>
                </g>
            </g>
        </g>
    </g>
</svg>