<?xml version="1.0" encoding="UTF-8"?>
<svg width="16px" height="16px" viewBox="0 0 16 16" version="1.1" xmlns="http://www.w3.org/2000/svg" xmlns:xlink="http://www.w3.org/1999/xlink">
    <title>链接</title>
    <g id="表单管理" stroke="none" stroke-width="1" fill="none" fill-rule="evenodd">
        <g id="表单详情-固定表单" transform="translate(-170.000000, -228.000000)" fill="#4A4C51" fill-rule="nonzero" stroke="#4A4C51" stroke-width="0.15">
            <g id="编组-11备份" transform="translate(152.000000, 218.000000)">
                <g id="链接-(1)" transform="translate(18.000000, 10.000000)">
                    <g id="形状-2" transform="translate(0.250000, 0.250000)">
                        <path d="M8.9304251,6.13573055 C8.93702013,6.14115624 8.94361603,6.14661087 8.95021277,6.15209453 C9.92391624,6.96150257 10.27242,7.86829385 10.2799293,8.77641098 C10.2874491,9.68579634 9.95120608,10.5974934 9.27037424,11.3007479 L9.27037424,11.3007479 L6.04718854,14.5245931 C5.34691866,15.224863 4.42910789,15.5749979 3.51129717,15.5749979 C2.59348644,15.5749979 1.67567567,15.224863 0.975405793,14.5245931 C0.282727052,13.8319144 -0.0673659907,12.9263799 -0.0748765251,12.0185387 C-0.0823998661,11.1091495 0.253838196,10.1974508 0.934657193,9.49419919 L0.934657193,9.49419919 L2.67537645,7.75283975 C2.76577614,7.66242848 2.88426794,7.61722252 3.00275991,7.61722252 C3.12125188,7.61722252 3.23974368,7.66242848 3.33013312,7.75282949 C3.41952841,7.84220165 3.46472797,7.95903844 3.46573911,8.07618832 C3.46675211,8.19355404 3.42340316,8.31122831 3.33483585,8.40282302 L3.33483585,8.40282302 L1.63016593,10.1075705 C1.11070489,10.6270316 0.850974323,11.3078667 0.850974323,11.9887018 C0.850974323,12.6695369 1.11070489,13.350372 1.63016593,13.869833 C2.14399195,14.383659 2.81571577,14.6433577 3.48915271,14.6489259 C4.16372562,14.6545035 4.84002255,14.4051022 5.36019099,13.9015466 L5.36019099,13.9015466 L8.57488923,10.6873916 C9.08871524,10.1735656 9.34841388,9.50184174 9.3539821,8.8284048 C9.3595597,8.15383189 9.1101584,7.47753496 8.60653169,6.95729525 C8.50197988,6.85244456 8.45008677,6.72988553 8.44365635,6.6121087 C8.43673752,6.48538616 8.48209935,6.36315885 8.57488923,6.27036897 C8.91160596,6.13476969 8.92094261,6.13505033 8.9304251,6.13573055 Z M11.9887028,-0.075 C12.9065136,-0.075 13.8243243,0.275134852 14.5245942,0.975404731 C15.2172729,1.66808347 15.567366,2.57361794 15.5748765,3.48145915 C15.5823999,4.39084837 15.2461618,5.30254712 14.5653428,6.00579869 L14.5653428,6.00579869 L12.4875278,8.08437784 L13.8615249,5.40070071 C14.3865254,4.88020731 14.6490257,4.19575172 14.6490257,3.5112961 C14.6490257,2.830461 14.3892951,2.14962592 13.8698341,1.63016487 C13.3560081,1.11633886 12.6842842,0.856640214 12.0108473,0.851072002 C11.3362744,0.845494397 10.6599774,1.0948957 10.139809,1.59845125 L10.139809,1.59845125 L6.92511077,4.8126063 C6.41128476,5.32643232 6.15158612,5.99815614 6.1460179,6.67159308 C6.1404403,7.34616599 6.3898416,8.02246292 6.89424548,8.54349363 C5.59175667,8.56930376 5.22774641,7.65166907 5.22006832,6.72357449 C5.21254497,5.81418527 5.54878304,4.90248652 6.22960668,4.1992303 L6.22960668,4.1992303 L9.45281146,0.975404731 C10.1530813,0.275134852 11.0708921,-0.075 11.9887028,-0.075 Z" id="形状"></path>
                    </g>
                </g>
            </g>
        </g>
    </g>
</svg>